<?xml version="1.0" encoding="utf-8"?>
<!-- Generator: Adobe Illustrator 16.0.0, SVG Export Plug-In . SVG Version: 6.00 Build 0)  -->
<!DOCTYPE svg PUBLIC "-//W3C//DTD SVG 1.1//EN" "http://www.w3.org/Graphics/SVG/1.1/DTD/svg11.dtd">
<svg version="1.1" id="Layer_1" xmlns="http://www.w3.org/2000/svg" xmlns:xlink="http://www.w3.org/1999/xlink" x="0px" y="0px"
	 width="1280px" height="800px" viewBox="0 0 1280 800" enable-background="new 0 0 1280 800" xml:space="preserve">
<g>
	<path fill-rule="evenodd" clip-rule="evenodd" d="M985.133,579c1.411,8.366-2.06,13.459-9.397,17.847
		c-107.243,64.124-214.348,128.48-321.398,192.926c-5.236,3.151-9.476,3.223-14.76,0.281
		c-74.38-41.404-148.843-82.659-223.285-123.952c-35.108-19.475-70.142-39.086-105.391-58.304c-6.24-3.402-8.907-7.684-8.948-14.612
		c-0.113-18.99-0.631-37.979-0.909-56.968c-0.487-33.319-0.86-66.641-1.378-99.96c-0.638-40.979-1.347-81.956-2.081-122.933
		c-0.567-31.647-1.07-63.297-1.955-94.936c-0.194-6.931,2.438-10.996,8.237-14.467c90.204-53.988,180.316-108.13,270.445-162.244
		c17.426-10.462,34.905-20.839,52.197-31.519c4.757-2.938,8.571-3.289,13.713-0.422c68.961,38.466,138.054,76.695,207.109,114.99
		c40.938,22.702,81.82,45.509,122.86,68.025c5.916,3.246,8.09,7.406,8.166,13.978c0.526,45.146,1.306,90.289,2.049,135.433
		c0.61,37.146,1.271,74.29,1.932,111.435c0.666,37.479,1.341,74.957,2.062,112.435C984.483,570.358,984.881,574.678,985.133,579z
		 M975.916,462.015c-0.428,0.001-0.854,0.001-1.281,0.001c-0.21-4.325-0.533-8.648-0.611-12.977
		c-0.694-38.481-1.351-76.964-2.008-115.446c-0.713-41.815-1.496-83.63-2.01-125.447c-0.058-4.68-1.734-7.142-5.686-9.33
		C855.293,138.45,746.318,77.989,637.373,17.477c-2.676-1.486-4.718-1.517-7.317,0.102c-8.342,5.198-16.827,10.168-25.254,15.229
		c-98.417,59.107-196.816,118.243-295.304,177.233c-4.146,2.482-5.637,5.189-5.449,9.95c0.561,14.147,0.669,28.313,0.91,42.472
		c0.738,43.314,1.442,86.631,2.187,129.945c0.579,33.65,1.248,67.299,1.786,100.949c0.519,32.489,1.068,64.979,1.23,97.471
		c0.027,5.425,1.764,8.283,6.45,10.874c108.771,60.14,217.464,120.422,326.124,180.765c2.983,1.657,5.13,1.743,8.114-0.067
		c27.776-16.854,55.655-33.54,83.51-50.267c79.28-47.607,158.551-95.231,237.888-142.746c3.28-1.965,4.741-4.06,4.496-7.928
		c-0.496-7.811-0.772-15.646-0.793-23.472C975.867,525.997,975.916,494.006,975.916,462.015z"/>
	<path fill-rule="evenodd" clip-rule="evenodd" d="M683.51,273.479c4.378-10.791,7.779-21.868,13.24-31.814
		c4.651-8.47,10.791-16.581,17.838-23.179c13.216-12.373,26.946-24.388,41.589-34.997c20.31-14.716,37.212-14.501,56.948,0.649
		c20.055,15.394,35.789,34.869,46.505,57.888c4.97,10.678,6.036,21.92,0.944,33.409c-3.141,7.084-4.867,14.795-7.412,22.804
		c13.529,2.882,22.477,12.23,32.777,19.422c25.005,17.459,27.644,49.502,5.562,72.374c-12.925,13.387-29.356,20.865-47.085,24.956
		c-14.387,3.319-29.172,4.906-43.781,7.259c-1.426,0.229-2.854,0.437-3.591,0.55c6.38,7.315,13.182,14.296,19.03,22.001
		c10.748,14.156,15.375,31.003,18.655,48.055c4.091,21.271,7.276,42.709,3.78,64.5c-4.342,27.064-18.088,48.813-38.194,66.717
		c-5.061,4.507-6.319,9.892-6.04,15.613c0.573,11.787,2.03,23.531,3.128,35.293c0.03,0.331,0.2,0.676,0.144,0.984
		c-0.373,2.007-0.791,4.006-1.194,6.008c-1.571-1.214-3.728-2.099-4.626-3.692c-9.522-16.896-24.982-24.313-43.207-27.162
		c-3.333-0.521-6.955,0.041-10.331,0.69c-22.636,4.353-45.329,5.239-68.046,0.983c-31.086-5.824-54.163-23.12-69.881-50.246
		c-6.004-10.361-11.113-21.247-16.487-31.966c-1.246-2.484-1.905-5.263-3.196-8.933c-1.54,2.818-2.71,5.041-3.954,7.223
		c-9.737,17.078-22.953,30.998-38.898,42.346c-16.213,11.538-32.755,11.686-49.445,0.906c-12.883-8.322-23.043-19.151-29.759-32.975
		c-5.604-11.536-5.63-23.133,1.316-34.619c-5.547,1.287-10.433,3.044-15.429,3.458c-13.163,1.091-24.632-3.83-34.585-11.951
		c-14.551-11.87-26.877-25.819-36.928-41.747c-17.114-27.123-14.517-57.607,7.412-80.816c10.391-10.998,23.678-17.662,37.659-22.991
		c29.995-11.432,61.056-14.563,92.859-11.942c0.304,0.025,0.625-0.163,1.427-0.391c-0.303-1.166-0.503-2.383-0.93-3.514
		c-6.71-17.777-10.665-36.143-10.292-55.156c0.328-16.688,3.912-32.788,12.624-47.277c2.586-4.302,3.096-8.443,1.451-12.796
		c-1.575-4.17-3.026-8.8-5.902-11.993c-12.022-13.349-24.179-26.623-37.025-39.169c-11.056-10.798-25.982-13.462-40.446-17.047
		c-22.14-5.486-41.321,2.138-59.093,13.555c-12.779,8.209-14.834,22.312-14.068,36.485c0.303,5.608,1.488,11.248,2.927,16.7
		c3.749,14.204,13.574,23.784,25.625,31.058c3.255,1.965,8.063,2.37,12.008,1.98c9.898-0.979,17.344-6.687,22.602-14.811
		c4.888-7.552,3.723-16.337-2.565-23.452c-1.249,1.84-2.479,3.521-3.574,5.286c-4.958,7.994-15.365,8.813-20.71,1.078
		c-2.757-3.99-4.865-8.848-5.751-13.597c-0.901-4.83,2.496-8.52,6.931-10.438c14.187-6.135,29.255-2.94,37.32,13.436
		c8.737,17.742,2.389,39.182-14.648,49.098c-19.415,11.299-38.803,8.241-53.359-8.762c-10.788-12.601-18.241-27.338-18.889-43.783
		c-0.62-15.756,2.079-31.71,11.191-45.378c6.818-10.227,17.404-15.413,28.968-18.27c19.486-4.815,39.314-5.422,59.002-1.895
		c17.858,3.2,32.751,12.793,46.199,24.611c11.709,10.29,21.632,22.151,30.055,35.271c1.076,1.676,2.147,3.419,3.535,4.82
		c4.264,4.31,6.662,4.237,11.542,0.646c13.637-10.037,27.911-18.834,44.899-22.104c1.102-0.212,2.134-0.792,3.718-1.401
		c-0.931-1.822-1.701-3.415-2.544-4.968c-9.854-18.148-17.34-37.122-19.697-57.804c-1.857-16.307-0.826-32.331,6.192-47.463
		c7.664-16.525,16.195-32.478,29.762-45.188c13.076-12.251,27.878-15.099,45.271-11.276c28.579,6.281,46.463,23.658,56.592,50.335
		c5.383,14.178,2.002,26.569-7.264,37.699c-10.084,12.11-22.723,18.276-38.847,15.115c-14.087-2.762-26.469-15.637-28.856-29.923
		c-1.336-7.998,7.077-23.276,14.667-26.109c4.237-1.581,8.574-1.812,11.86,2.259c2.288,2.833,4.647,5.633,6.664,8.655
		c5.592,8.382-1.767,18.976-10.634,19.185c-1.795,0.042-3.584,0.279-5.423,0.43c1.728,7.794,10.552,13.959,19.083,13.17
		c8.979-0.829,16.627-4.877,22.708-11.445c5.495-5.936,5.598-13.393,4.312-20.789c-4.805-27.63-29.212-45.431-51.253-47.503
		c-7.649-0.72-14.827,0.868-20.737,5.549c-8.327,6.595-16.139,13.847-24.062,20.939c-1.456,1.303-2.671,3.051-3.524,4.821
		c-10.751,22.313-16.901,45.365-9.107,69.979c4.22,13.328,9.344,26.373,14.207,39.491c0.974,2.628,2.545,5.046,3.948,7.5
		c2.838,4.96,6.998,7.272,12.845,8.103c15.2,2.157,28.409,9.174,40.514,18.392C664.572,249.845,674.834,261.152,683.51,273.479z
		 M364.127,454.993c0.224,10.972,1.011,20.006,5.945,27.521c6.258,9.533,13.008,18.906,20.705,27.283
		c7.605,8.276,15.996,16.18,25.21,22.558c18.291,12.66,41.766,8.989,57.019-7.088c5.809-6.123,12.331-11.711,19.133-16.721
		c18.592-13.692,39.279-23.757,60.112-33.498c21.108-9.869,42.232-19.703,63.327-29.601c5.105-2.395,6.025-7.406,1.738-11.284
		c-4.557-4.121-9.544-7.774-14.42-11.532c-20.444-15.755-42.439-28.674-67.109-36.734c-18.65-6.094-37.804-6.787-57.196-5.975
		c-28.583,1.198-55.825,7.565-80.685,21.86C376.865,413.883,364.828,432.146,364.127,454.993z M681.889,326.999
		c1.051,12.529,2.517,32.266,4.449,51.957c0.793,8.078,1.964,16.231,4.105,24.037c2.321,8.456,9.096,10.604,16.354,5.754
		c3.412-2.281,6.487-5.215,9.278-8.255c9.333-10.163,17.996-20.982,27.776-30.683c19.808-19.643,42.018-36.434,65.176-51.906
		c11.16-7.456,21.904-15.842,35.303-19.338c0.968-0.252,2.005-1.657,2.328-2.732c2.539-8.438,4.232-17.197,7.481-25.342
		c6.073-15.225,1.829-29.297-5.26-42.158c-8.04-14.585-18.987-27.475-31.84-38.239c-23.281-19.5-41.11-19.733-61.485-4.487
		c-14.217,10.638-27.369,22.734-40.662,34.557c-8.807,7.833-15.172,17.595-19.873,28.441
		C685.174,271.32,682.443,295.287,681.889,326.999z M776.63,419.95c-0.073,0.399-0.146,0.8-0.218,1.199
		c-8.646,0-17.301-0.196-25.935,0.135c-2.229,0.086-4.923,1.305-6.51,2.896c-14.048,14.083-30.764,24.375-47.946,33.952
		c-27.101,15.105-55.479,27.448-84.585,38.116c-3.621,1.327-5.621,3.473-7.103,6.951c-6.191,14.538-12.605,28.982-19.03,43.421
		c-2.948,6.624-3.045,13.404-0.232,19.835c1.052,2.404,4.198,4.855,6.785,5.397c3.785,0.793,7.953,0.119,11.912-0.331
		c37.872-4.312,73.381-15.906,106.472-34.833c40.274-23.034,72.153-54.867,97.534-93.439c0.81-1.229,1.277-3.881,0.557-4.738
		C799.971,428.554,790.412,420.478,776.63,419.95z M509.152,611.859c9.581-0.082,16.336-2.851,22.479-7.016
		c16.66-11.297,29.981-25.722,39.914-43.268c2.4-4.24,3.605-9.468,9.019-11.414c0.586-0.211,0.909-1.326,1.23-2.075
		c12.318-28.737,24.64-57.473,36.888-86.24c0.903-2.12,1.485-4.441,1.816-6.728c0.627-4.327-1.434-6.525-5.746-5.664
		c-3.376,0.675-6.679,2.032-9.826,3.492c-12.679,5.878-25.265,11.953-37.92,17.881c-25.624,12.004-51.499,23.563-74.585,40.236
		c-14.809,10.694-27.272,23.543-33.857,40.974c-3.34,8.843-2.682,18.119,2.734,25.818c4.932,7.011,11.081,13.311,17.394,19.169
		C487.756,605.44,498.27,611.37,509.152,611.859z M743.217,419.021c15.594-2.791,33.02,1.576,49.899-4.098
		c5.538-1.862,11.876-1.265,17.822-2.005c21.634-2.694,42.746-7.209,61.662-18.783c14.464-8.851,24.924-20.828,26.766-38.289
		c1.27-12.034-0.762-23.841-10.062-32.515c-6.539-6.099-14.194-11.024-21.483-16.29c-11.579-8.364-23.812-8.594-35.489-0.884
		c-19.16,12.65-38.172,25.571-56.686,39.145c-20.219,14.823-38.045,32.38-53.885,51.813c-3.35,4.109-5.522,9.378-7.394,14.426
		c-1.388,3.742,0.373,6.266,5.006,6.351C726.857,418.028,734.332,418.577,743.217,419.021z M702.074,648.112
		c13.605-1.839,29.5-3.413,45.148-6.321c9.189-1.708,18.281-4.854,26.891-8.573c13.311-5.751,22.777-16.681,32.184-27.186
		c17.777-19.855,27.256-43.147,26.93-70.12c-0.037-2.999-1.463-4.445-3.819-3.554c-4.529,1.713-9.349,3.46-13.036,6.444
		c-9.692,7.845-18.336,17.039-28.3,24.488c-33.636,25.144-69.847,45.77-109.364,60.374c-6.008,2.221-11.357,5.774-13.852,12.193
		c-2.184,5.625-0.824,8.295,5.023,9.004C679.77,646.063,689.707,646.887,702.074,648.112z M683.46,370.877
		c-0.455-0.145-0.909-0.29-1.364-0.435c-0.793-15.784-1.484-31.574-2.563-47.339c-0.092-1.346-2.924-3.718-4.207-3.547
		c-4.352,0.58-9.096,1.211-12.771,3.381c-32.124,18.969-64.07,38.24-95.994,57.547c-2.642,1.598-4.921,3.937-7.028,6.242
		c-2.654,2.904-2.401,4.898,1.559,7.207c13.783,8.036,27.31,16.521,40.775,25.084c2.66,1.691,4.682,2.489,7.687,0.957
		c14.237-7.258,28.97-13.648,42.725-21.714c9.657-5.662,18.14-13.381,26.887-20.5C681.15,376.146,682.057,373.207,683.46,370.877z"
		/>
</g>
</svg>
