<?xml version="1.0" encoding="utf-8"?>
<!-- Generator: Adobe Illustrator 16.0.0, SVG Export Plug-In . SVG Version: 6.00 Build 0)  -->
<!DOCTYPE svg PUBLIC "-//W3C//DTD SVG 1.1//EN" "http://www.w3.org/Graphics/SVG/1.1/DTD/svg11.dtd">
<svg version="1.1" xmlns="http://www.w3.org/2000/svg" xmlns:xlink="http://www.w3.org/1999/xlink" x="0px" y="0px" width="1280px"
	 height="800px" viewBox="0 0 1280 800" enable-background="new 0 0 1280 800" xml:space="preserve">
<g id="Layer_2">
	
		<radialGradient id="SVGID_1_" cx="663" cy="447" r="707.6722" gradientTransform="matrix(-1 0 0 -0.62 1326 724.14)" gradientUnits="userSpaceOnUse">
		<stop  offset="0.4516" style="stop-color:#FFFFFF"/>
		<stop  offset="0.8548" style="stop-color:#000000"/>
	</radialGradient>
	<rect y="3" fill="url(#SVGID_1_)" width="1280" height="797"/>
</g>
<g id="Layer_1">
	<linearGradient id="SVGID_2_" gradientUnits="userSpaceOnUse" x1="640" y1="0.5" x2="640" y2="0.5">
		<stop  offset="0" style="stop-color:#000000"/>
		<stop  offset="1" style="stop-color:#FFFFFF"/>
	</linearGradient>
	<path fill="#FFFFFF" stroke="url(#SVGID_2_)" stroke-miterlimit="10" d="M640,0.5"/>
	<polygon points="-191.551,-28.582 -190.686,-78.184 -233.135,-103.602 -276.449,-79.417 -277.314,-29.815 -234.865,-4.398 	"/>
	<polygon points="-103.551,-27.582 -102.686,-77.184 -145.135,-102.602 -188.449,-78.417 -189.314,-28.815 -146.865,-3.398 	"/>
	<polygon points="-15.551,-27.582 -14.686,-77.184 -57.135,-102.602 -100.449,-78.417 -101.314,-28.815 -58.865,-3.398 	"/>
	<polygon points="72.449,-26.582 73.314,-76.184 30.865,-101.602 -12.449,-77.417 -13.314,-27.815 29.135,-2.398 	"/>
	<polygon points="-234.314,46.185 -191.865,71.602 -148.551,47.418 -147.686,-2.184 -190.135,-27.602 -233.449,-3.417 	"/>
	<polygon fill="#1A2D33" points="-146.314,47.185 -103.865,72.602 -60.551,48.418 -59.686,-1.184 -102.135,-26.602 -145.449,-2.417 
			"/>
	<polygon fill="#1A2D33" points="-58.314,47.185 -15.865,72.602 27.449,48.418 28.314,-1.184 -14.135,-26.602 -57.449,-2.417 	"/>
	<polygon fill="#1A2D33" points="29.686,48.185 72.135,73.602 115.449,49.418 116.314,-0.184 73.865,-25.602 30.551,-1.417 	"/>
	<polygon points="160.449,-26.582 161.314,-76.184 118.865,-101.602 75.551,-77.417 74.686,-27.815 117.135,-2.398 	"/>
	<polygon points="248.449,-25.582 249.314,-75.184 206.865,-100.602 163.551,-76.417 162.686,-26.815 205.135,-1.398 	"/>
	<polygon points="336.449,-25.582 337.314,-75.184 294.865,-100.602 251.551,-76.417 250.686,-26.815 293.135,-1.398 	"/>
	<polygon points="424.449,-24.582 425.314,-74.184 382.865,-99.602 339.551,-75.417 338.686,-25.815 381.135,-0.398 	"/>
	<polygon fill="#1A2D33" points="117.686,48.185 160.135,73.602 203.449,49.418 204.314,-0.184 161.865,-25.602 118.551,-1.417 	"/>
	<polygon fill="#1A2D33" points="205.686,49.185 248.135,74.602 291.449,50.418 292.314,0.816 249.865,-24.602 206.551,-0.417 	"/>
	<polygon fill="#1A2D33" points="293.686,49.185 336.135,74.602 379.449,50.418 380.314,0.816 337.865,-24.602 294.551,-0.417 	"/>
	<polygon fill="#1A2D33" points="381.686,50.185 424.135,75.602 467.449,51.418 468.314,1.816 425.865,-23.602 382.551,0.583 	"/>
	<polygon points="-193.551,123.418 -192.686,73.816 -235.135,48.398 -278.449,72.583 -279.314,122.185 -236.865,147.602 	"/>
	<polygon fill="#1A2D33" points="-190.449,73.583 -191.314,123.185 -148.865,148.602 -105.551,124.418 -104.686,74.816 
		-147.135,49.398 	"/>
	<polygon fill="#1A2D33" points="-102.449,73.583 -103.314,123.185 -60.865,148.602 -17.551,124.418 -16.686,74.816 -59.135,49.398 
			"/>
	<polygon fill="#1A2D33" points="-14.449,74.583 -15.314,124.185 27.135,149.602 70.449,125.418 71.314,75.816 28.865,50.398 	"/>
	<polygon points="-235.449,148.583 -236.314,198.185 -193.865,223.602 -150.551,199.418 -149.686,149.816 -192.135,124.398 	"/>
	<polygon fill="#1A2D33" points="-147.449,149.583 -148.314,199.185 -105.865,224.602 -62.551,200.418 -61.686,150.816 
		-104.135,125.398 	"/>
	<polygon fill="#1A2D33" points="-59.449,149.583 -60.314,199.185 -17.865,224.602 25.449,200.418 26.314,150.816 -16.135,125.398 	
		"/>
	<polygon fill="#1A2D33" points="28.551,150.583 27.686,200.185 70.135,225.602 113.449,201.418 114.314,151.816 71.865,126.398 	
		"/>
	<polygon fill="#FFFFFF" points="73.551,74.583 72.686,124.185 115.135,149.602 158.449,125.418 159.314,75.816 116.865,50.398 	"/>
	<polygon fill="#1A2D33" points="161.551,75.583 160.686,125.185 203.135,150.602 246.449,126.418 247.314,76.816 204.865,51.398 	
		"/>
	<polygon fill="#1A2D33" points="249.551,75.583 248.686,125.185 291.135,150.602 334.449,126.418 335.314,76.816 292.865,51.398 	
		"/>
	<polygon fill="#1A2D33" points="337.551,76.583 336.686,126.185 379.135,151.602 422.449,127.418 423.314,77.816 380.865,52.398 	
		"/>
	<polygon fill="#1A2D33" points="116.551,150.583 115.686,200.185 158.135,225.602 201.449,201.418 202.314,151.816 
		159.865,126.398 	"/>
	<polygon fill="#1A2D33" points="204.551,151.583 203.686,201.185 246.135,226.602 289.449,202.418 290.314,152.816 
		247.865,127.398 	"/>
	<polygon fill="#1A2D33" points="292.551,151.583 291.686,201.185 334.135,226.602 377.449,202.418 378.314,152.816 
		335.865,127.398 	"/>
	<polygon fill="#1A2D33" points="380.551,152.583 379.686,202.185 422.135,227.602 465.449,203.418 466.314,153.816 
		423.865,128.398 	"/>
	<polygon points="-195.551,275.418 -194.686,225.816 -237.135,200.398 -280.449,224.583 -281.314,274.185 -238.865,299.602 	"/>
	<polygon fill="#1A2D33" points="-192.449,225.583 -193.314,275.185 -150.865,300.602 -107.551,276.418 -106.686,226.816 
		-149.135,201.398 	"/>
	<polygon fill="#1A2D33" points="-104.449,225.583 -105.314,275.185 -62.865,300.602 -19.551,276.418 -18.686,226.816 
		-61.135,201.398 	"/>
	<polygon fill="#1A2D33" points="-16.449,226.583 -17.314,276.185 25.135,301.602 68.449,277.418 69.314,227.816 26.865,202.398 	
		"/>
	<polygon points="-238.314,350.185 -195.865,375.602 -152.551,351.418 -151.686,301.816 -194.135,276.398 -237.449,300.583 	"/>
	<polygon fill="#1A2D33" points="-149.449,301.583 -150.314,351.185 -107.865,376.602 -64.551,352.418 -63.686,302.816 
		-106.135,277.398 	"/>
	<polygon fill="#1A2D33" points="-61.449,301.583 -62.314,351.185 -19.865,376.602 23.449,352.418 24.314,302.816 -18.135,277.398 	
		"/>
	<polygon fill="#1A2D33" points="26.551,302.583 25.686,352.185 68.135,377.602 111.449,353.418 112.314,303.816 69.865,278.398 	
		"/>
	<polygon fill="#1A2D33" points="71.551,226.583 70.686,276.185 113.135,301.602 156.449,277.418 157.314,227.816 114.865,202.398 	
		"/>
	<polygon fill="#1A2D33" points="159.551,227.583 158.686,277.185 201.135,302.602 244.449,278.418 245.314,228.816 
		202.865,203.398 	"/>
	<polygon fill="#1A2D33" points="247.551,227.583 246.686,277.185 289.135,302.602 332.449,278.418 333.314,228.816 
		290.865,203.398 	"/>
	<polygon fill="#1A2D33" points="335.551,228.583 334.686,278.185 377.135,303.602 420.449,279.418 421.314,229.816 
		378.865,204.398 	"/>
	<polygon fill="#1A2D33" points="114.551,302.583 113.686,352.185 156.135,377.602 199.449,353.418 200.314,303.816 
		157.865,278.398 	"/>
	<polygon fill="#1A2D33" points="202.551,303.583 201.686,353.185 244.135,378.602 287.449,354.418 288.314,304.816 
		245.865,279.398 	"/>
	<polygon fill="#1A2D33" points="290.551,303.583 289.686,353.185 332.135,378.602 375.449,354.418 376.314,304.816 
		333.865,279.398 	"/>
	<polygon fill="#1A2D33" points="378.551,304.583 377.686,354.185 420.135,379.602 463.449,355.418 464.314,305.816 
		421.865,280.398 	"/>
	<polygon points="-197.551,427.418 -196.686,377.816 -239.135,352.398 -282.449,376.583 -283.314,426.185 -240.865,451.602 	"/>
	<polygon fill="#1A2D33" points="-195.314,427.185 -152.865,452.602 -109.551,428.418 -108.686,378.816 -151.135,353.398 
		-194.449,377.583 	"/>
	<polygon fill="#1A2D33" points="-106.449,377.583 -107.314,427.185 -64.865,452.602 -21.551,428.418 -20.686,378.816 
		-63.135,353.398 	"/>
	<polygon fill="#1A2D33" points="-18.449,378.583 -19.314,428.185 23.135,453.602 66.449,429.418 67.314,379.816 24.865,354.398 	
		"/>
	<polygon points="-240.314,502.185 -197.865,527.602 -154.551,503.418 -153.686,453.816 -196.135,428.398 -239.449,452.583 	"/>
	<polygon fill="#1A2D33" points="-151.449,453.583 -152.314,503.185 -109.865,528.602 -66.551,504.418 -65.686,454.816 
		-108.135,429.398 	"/>
	<polygon fill="#1A2D33" points="-63.449,453.583 -64.314,503.185 -21.865,528.602 21.449,504.418 22.314,454.816 -20.135,429.398 	
		"/>
	<polygon fill="#1A2D33" points="24.551,454.583 23.686,504.185 66.135,529.602 109.449,505.418 110.314,455.816 67.865,430.398 	
		"/>
	<polygon fill="#1A2D33" points="69.551,378.583 68.686,428.185 111.135,453.602 154.449,429.418 155.314,379.816 112.865,354.398 	
		"/>
	<polygon fill="#1A2D33" points="157.551,379.583 156.686,429.185 199.135,454.602 242.449,430.418 243.314,380.816 
		200.865,355.398 	"/>
	<polygon fill="#1A2D33" points="245.551,379.583 244.686,429.185 287.135,454.602 330.449,430.418 331.314,380.816 
		288.865,355.398 	"/>
	<polygon fill="#1A2D33" points="333.551,380.583 332.686,430.185 375.135,455.602 418.449,431.418 419.314,381.816 
		376.865,356.398 	"/>
	<polygon fill="#1A2D33" points="112.551,454.583 111.686,504.185 154.135,529.602 197.449,505.418 198.314,455.816 
		155.865,430.398 	"/>
	<polygon fill="#1A2D33" points="200.551,455.583 199.686,505.185 242.135,530.602 285.449,506.418 286.314,456.816 
		243.865,431.398 	"/>
	<polygon fill="#1A2D33" points="288.551,455.583 287.686,505.185 330.135,530.602 373.449,506.418 374.314,456.816 
		331.865,431.398 	"/>
	<polygon fill="#1A2D33" points="376.551,456.583 375.686,506.185 418.135,531.602 461.449,507.418 462.314,457.816 
		419.865,432.398 	"/>
	<polygon points="512.449,-24.582 513.314,-74.184 470.865,-99.602 427.551,-75.417 426.686,-25.815 469.135,-0.398 	"/>
	<polygon points="600.449,-23.582 601.314,-73.184 558.865,-98.602 515.551,-74.417 514.686,-24.815 557.135,0.602 	"/>
	<polygon points="688.449,-23.582 689.314,-73.184 646.865,-98.602 603.551,-74.417 602.686,-24.815 645.135,0.602 	"/>
	<polygon points="776.449,-22.582 777.314,-72.184 734.865,-97.602 691.551,-73.417 690.686,-23.815 733.135,1.602 	"/>
	<polygon fill="#1A2D33" points="469.686,50.185 512.135,75.602 555.449,51.418 556.314,1.816 513.865,-23.602 470.551,0.583 	"/>
	<polygon fill="#1A2D33" points="557.686,51.185 600.135,76.602 643.449,52.418 644.314,2.816 601.865,-22.602 558.551,1.583 	"/>
	<polygon fill="#1A2D33" points="645.686,51.185 688.135,76.602 731.449,52.418 732.314,2.816 689.865,-22.602 646.551,1.583 	"/>
	<polygon fill="#1A2D33" points="733.686,52.185 776.135,77.602 819.449,53.418 820.314,3.816 777.865,-21.602 734.551,2.583 	"/>
	<polygon points="864.449,-22.582 865.314,-72.184 822.865,-97.602 779.551,-73.417 778.686,-23.815 821.135,1.602 	"/>
	<polygon points="952.449,-21.582 953.314,-71.184 910.865,-96.602 867.551,-72.417 866.686,-22.815 909.135,2.602 	"/>
	<polygon points="1040.449,-21.582 1041.314,-71.184 998.865,-96.602 955.551,-72.417 954.686,-22.815 997.135,2.602 	"/>
	<polygon points="1128.449,-20.582 1129.314,-70.184 1086.865,-95.602 1043.551,-71.417 1042.686,-21.815 1085.135,3.602 	"/>
	<polygon fill="#1A2D33" points="821.686,52.185 864.135,77.602 907.449,53.418 908.314,3.816 865.865,-21.602 822.551,2.583 	"/>
	<polygon fill="#1A2D33" points="909.686,53.185 952.135,78.602 995.449,54.418 996.314,4.816 953.865,-20.602 910.551,3.583 	"/>
	<polygon fill="#1A2D33" points="997.686,53.185 1040.135,78.602 1083.449,54.418 1084.314,4.816 1041.865,-20.602 998.551,3.583 	
		"/>
	<polygon fill="#1A2D33" points="1085.686,54.185 1128.135,79.602 1171.449,55.418 1172.314,5.816 1129.865,-19.602 1086.551,4.583 
			"/>
	<polygon fill="#1A2D33" points="425.551,76.583 424.686,126.185 467.135,151.602 510.449,127.418 511.314,77.816 468.865,52.398 	
		"/>
	<polygon fill="#1A2D33" points="513.551,77.583 512.686,127.185 555.135,152.602 598.449,128.418 599.314,78.816 556.865,53.398 	
		"/>
	<polygon fill="#1A2D33" points="601.551,77.583 600.686,127.185 643.135,152.602 686.449,128.418 687.314,78.816 644.865,53.398 	
		"/>
	<polygon fill="#1A2D33" points="689.551,78.583 688.686,128.185 731.135,153.602 774.449,129.418 775.314,79.816 732.865,54.398 	
		"/>
	<polygon fill="#1A2D33" points="468.551,152.583 467.686,202.185 510.135,227.602 553.449,203.418 554.314,153.816 
		511.865,128.398 	"/>
	<polygon fill="#1A2D33" points="556.551,153.583 555.686,203.185 598.135,228.602 641.449,204.418 642.314,154.816 
		599.865,129.398 	"/>
	<polygon fill="#1A2D33" points="644.551,153.583 643.686,203.185 686.135,228.602 729.449,204.418 730.314,154.816 
		687.865,129.398 	"/>
	<polygon fill="#1A2D33" points="732.551,154.583 731.686,204.185 774.135,229.602 817.449,205.418 818.314,155.816 
		775.865,130.398 	"/>
	<polygon fill="#1A2D33" points="777.551,78.583 776.686,128.185 819.135,153.602 862.449,129.418 863.314,79.816 820.865,54.398 	
		"/>
	<polygon fill="#1A2D33" points="865.551,79.583 864.686,129.185 907.135,154.602 950.449,130.418 951.314,80.816 908.865,55.398 	
		"/>
	<polygon fill="#1A2D33" points="953.551,79.583 952.686,129.185 995.135,154.602 1038.449,130.418 1039.314,80.816 996.865,55.398 
			"/>
	<polygon fill="#1A2D33" points="1041.551,80.583 1040.686,130.185 1083.135,155.602 1126.449,131.418 1127.314,81.816 
		1084.865,56.398 	"/>
	<polygon fill="#1A2D33" points="820.551,154.583 819.686,204.185 862.135,229.602 905.449,205.418 906.314,155.816 
		863.865,130.398 	"/>
	<polygon fill="#1A2D33" points="908.551,155.583 907.686,205.185 950.135,230.602 993.449,206.418 994.314,156.816 
		951.865,131.398 	"/>
	<polygon fill="#1A2D33" points="996.551,155.583 995.686,205.185 1038.135,230.602 1081.449,206.418 1082.314,156.816 
		1039.865,131.398 	"/>
	<polygon fill="#1A2D33" points="1084.551,156.583 1083.686,206.185 1126.135,231.602 1169.449,207.418 1170.314,157.816 
		1127.865,132.398 	"/>
	<polygon fill="#1A2D33" points="423.551,228.583 422.686,278.185 465.135,303.602 508.449,279.418 509.314,229.816 
		466.865,204.398 	"/>
	<polygon fill="#1A2D33" points="511.551,229.583 510.686,279.185 553.135,304.602 596.449,280.418 597.314,230.816 
		554.865,205.398 	"/>
	<polygon fill="#1A2D33" points="599.551,229.583 598.686,279.185 641.135,304.602 684.449,280.418 685.314,230.816 
		642.865,205.398 	"/>
	<polygon fill="#1A2D33" points="687.551,230.583 686.686,280.185 729.135,305.602 772.449,281.418 773.314,231.816 
		730.865,206.398 	"/>
	<polygon fill="#1A2D33" points="466.551,304.583 465.686,354.185 508.135,379.602 551.449,355.418 552.314,305.816 
		509.865,280.398 	"/>
	<polygon fill="#1A2D33" points="554.551,305.583 553.686,355.185 596.135,380.602 639.449,356.418 640.314,306.816 
		597.865,281.398 	"/>
	<polygon fill="#1A2D33" points="642.551,305.583 641.686,355.185 684.135,380.602 727.449,356.418 728.314,306.816 
		685.865,281.398 	"/>
	<polygon fill="#1A2D33" points="730.551,306.583 729.686,356.185 772.135,381.602 815.449,357.418 816.314,307.816 
		773.865,282.398 	"/>
	<polygon fill="#1A2D33" points="775.551,230.583 774.686,280.185 817.135,305.602 860.449,281.418 861.314,231.816 
		818.865,206.398 	"/>
	<polygon fill="#1A2D33" points="863.551,231.583 862.686,281.185 905.135,306.602 948.449,282.418 949.314,232.816 
		906.865,207.398 	"/>
	<polygon fill="#1A2D33" points="951.551,231.583 950.686,281.185 993.135,306.602 1036.449,282.418 1037.314,232.816 
		994.865,207.398 	"/>
	<polygon fill="#1A2D33" points="1039.551,232.583 1038.686,282.185 1081.135,307.602 1124.449,283.418 1125.314,233.816 
		1082.865,208.398 	"/>
	<polygon fill="#1A2D33" points="818.551,306.583 817.686,356.185 860.135,381.602 903.449,357.418 904.314,307.816 
		861.865,282.398 	"/>
	<polygon fill="#1A2D33" points="906.551,307.583 905.686,357.185 948.135,382.602 991.449,358.418 992.314,308.816 
		949.865,283.398 	"/>
	<polygon fill="#1A2D33" points="994.551,307.583 993.686,357.185 1036.135,382.602 1079.449,358.418 1080.314,308.816 
		1037.865,283.398 	"/>
	<polygon fill="#1A2D33" points="1082.551,308.583 1081.686,358.185 1124.135,383.602 1167.449,359.418 1168.314,309.816 
		1125.865,284.398 	"/>
	<polygon fill="#1A2D33" points="421.551,380.583 420.686,430.185 463.135,455.602 506.449,431.418 507.314,381.816 
		464.865,356.398 	"/>
	<polygon fill="#1A2D33" points="509.551,381.583 508.686,431.185 551.135,456.602 594.449,432.418 595.314,382.816 
		552.865,357.398 	"/>
	<polygon fill="#1A2D33" points="597.551,381.583 596.686,431.185 639.135,456.602 682.449,432.418 683.314,382.816 
		640.865,357.398 	"/>
	<polygon fill="#1A2D33" points="685.551,382.583 684.686,432.185 727.135,457.602 770.449,433.418 771.314,383.816 
		728.865,358.398 	"/>
	<polygon fill="#1A2D33" points="464.551,456.583 463.686,506.185 506.135,531.602 549.449,507.418 550.314,457.816 
		507.865,432.398 	"/>
	<polygon fill="#1A2D33" points="552.551,457.583 551.686,507.185 594.135,532.602 637.449,508.418 638.314,458.816 
		595.865,433.398 	"/>
	<polygon fill="#1A2D33" points="640.551,457.583 639.686,507.185 682.135,532.602 725.449,508.418 726.314,458.816 
		683.865,433.398 	"/>
	<polygon fill="#1A2D33" points="728.551,458.583 727.686,508.185 770.135,533.602 813.449,509.418 814.314,459.816 
		771.865,434.398 	"/>
	<polygon fill="#1A2D33" points="773.551,382.583 772.686,432.185 815.135,457.602 858.449,433.418 859.314,383.816 
		816.865,358.398 	"/>
	<polygon fill="#1A2D33" points="861.551,383.583 860.686,433.185 903.135,458.602 946.449,434.418 947.314,384.816 
		904.865,359.398 	"/>
	<polygon fill="#1A2D33" points="949.551,383.583 948.686,433.185 991.135,458.602 1034.449,434.418 1035.314,384.816 
		992.865,359.398 	"/>
	<polygon fill="#1A2D33" points="1037.551,384.583 1036.686,434.185 1079.135,459.602 1122.449,435.418 1123.314,385.816 
		1080.865,360.398 	"/>
	<polygon fill="#1A2D33" points="816.551,458.583 815.686,508.185 858.135,533.602 901.449,509.418 902.314,459.816 
		859.865,434.398 	"/>
	<polygon fill="#1A2D33" points="904.551,459.583 903.686,509.185 946.135,534.602 989.449,510.418 990.314,460.816 
		947.865,435.398 	"/>
	<polygon fill="#1A2D33" points="992.551,459.583 991.686,509.185 1034.135,534.602 1077.449,510.418 1078.314,460.816 
		1035.865,435.398 	"/>
	<polygon fill="#1A2D33" points="1080.551,460.583 1079.686,510.185 1122.135,535.602 1165.449,511.418 1166.314,461.816 
		1123.865,436.398 	"/>
	<polygon points="-287.551,579.418 -286.686,529.816 -329.135,504.398 -372.449,528.583 -373.314,578.185 -330.865,603.602 	"/>
	<polygon points="-199.551,580.418 -198.686,530.816 -241.135,505.398 -284.449,529.583 -285.314,579.185 -242.865,604.602 	"/>
	<polygon points="-197.314,579.185 -154.865,604.602 -111.551,580.418 -110.686,530.816 -153.135,505.398 -196.449,529.583 	"/>
	<polygon fill="#1A2D33" points="-23.551,581.418 -22.686,531.816 -65.135,506.398 -108.449,530.583 -109.314,580.185 
		-66.865,605.602 	"/>
	<polygon points="-330.314,654.185 -287.865,679.602 -244.551,655.418 -243.686,605.816 -286.135,580.398 -329.449,604.583 	"/>
	<polygon points="-242.314,655.185 -199.865,680.602 -156.551,656.418 -155.686,606.816 -198.135,581.398 -241.449,605.583 	"/>
	<polygon fill="#1A2D33" points="-154.314,655.185 -111.865,680.602 -68.551,656.418 -67.686,606.816 -110.135,581.398 
		-153.449,605.583 	"/>
	<polygon fill="#1A2D33" points="19.449,657.418 20.314,607.816 -22.135,582.398 -65.449,606.583 -66.314,656.185 -23.865,681.602 	
		"/>
	<polygon fill="#1A2D33" points="64.449,581.418 65.314,531.816 22.865,506.398 -20.449,530.583 -21.314,580.185 21.135,605.602 	
		"/>
	<polygon fill="#1A2D33" points="152.449,582.418 153.314,532.816 110.865,507.398 67.551,531.583 66.686,581.185 109.135,606.602 	
		"/>
	<polygon fill="#1A2D33" points="240.449,582.418 241.314,532.816 198.865,507.398 155.551,531.583 154.686,581.185 
		197.135,606.602 	"/>
	<polygon fill="#1A2D33" points="328.449,583.418 329.314,533.816 286.865,508.398 243.551,532.583 242.686,582.185 
		285.135,607.602 	"/>
	<polygon fill="#1A2D33" points="107.449,657.418 108.314,607.816 65.865,582.398 22.551,606.583 21.686,656.185 64.135,681.602 	
		"/>
	<polygon fill="#1A2D33" points="195.449,658.418 196.314,608.816 153.865,583.398 110.551,607.583 109.686,657.185 
		152.135,682.602 	"/>
	<polygon fill="#1A2D33" points="283.449,658.418 284.314,608.816 241.865,583.398 198.551,607.583 197.686,657.185 
		240.135,682.602 	"/>
	<polygon fill="#1A2D33" points="371.449,659.418 372.314,609.816 329.865,584.398 286.551,608.583 285.686,658.185 
		328.135,683.602 	"/>
	<polygon points="-289.551,731.418 -288.686,681.816 -331.135,656.398 -374.449,680.583 -375.314,730.185 -332.865,755.602 	"/>
	<polygon points="-286.449,681.583 -287.314,731.185 -244.865,756.602 -201.551,732.418 -200.686,682.816 -243.135,657.398 	"/>
	<polygon points="-113.551,732.418 -112.686,682.816 -155.135,657.398 -198.449,681.583 -199.314,731.185 -156.865,756.602 	"/>
	<polygon fill="#1A2D33" points="-25.551,733.418 -24.686,683.816 -67.135,658.398 -110.449,682.583 -111.314,732.185 
		-68.865,757.602 	"/>
	<polygon points="-331.449,756.583 -332.314,806.185 -289.865,831.602 -246.551,807.418 -245.686,757.816 -288.135,732.398 	"/>
	<polygon points="-243.449,757.583 -244.314,807.185 -201.865,832.602 -158.551,808.418 -157.686,758.816 -200.135,733.398 	"/>
	<polygon fill="#1A2D33" points="-70.551,808.418 -69.686,758.816 -112.135,733.398 -155.449,757.583 -156.314,807.185 
		-113.865,832.602 	"/>
	<polygon fill="#1A2D33" points="17.449,809.418 18.314,759.816 -24.135,734.398 -67.449,758.583 -68.314,808.185 -25.865,833.602 	
		"/>
	<polygon fill="#1A2D33" points="62.449,733.418 63.314,683.816 20.865,658.398 -22.449,682.583 -23.314,732.185 19.135,757.602 	
		"/>
	<polygon fill="#1A2D33" points="150.449,734.418 151.314,684.816 108.865,659.398 65.551,683.583 64.686,733.185 107.135,758.602 	
		"/>
	<polygon fill="#1A2D33" points="238.449,734.418 239.314,684.816 196.865,659.398 153.551,683.583 152.686,733.185 
		195.135,758.602 	"/>
	<polygon fill="#1A2D33" points="326.449,735.418 327.314,685.816 284.865,660.398 241.551,684.583 240.686,734.185 
		283.135,759.602 	"/>
	<polygon fill="#1A2D33" points="105.449,809.418 106.314,759.816 63.865,734.398 20.551,758.583 19.686,808.185 62.135,833.602 	
		"/>
	<polygon fill="#1A2D33" points="193.449,810.418 194.314,760.816 151.865,735.398 108.551,759.583 107.686,809.185 
		150.135,834.602 	"/>
	<polygon fill="#1A2D33" points="281.449,810.418 282.314,760.816 239.865,735.398 196.551,759.583 195.686,809.185 
		238.135,834.602 	"/>
	<polygon fill="#1A2D33" points="369.449,811.418 370.314,761.816 327.865,736.398 284.551,760.583 283.686,810.185 
		326.135,835.602 	"/>
	<polygon points="-291.551,883.418 -290.686,833.816 -333.135,808.398 -376.449,832.583 -377.314,882.185 -334.865,907.602 	"/>
	<polygon points="-203.551,884.418 -202.686,834.816 -245.135,809.398 -288.449,833.583 -289.314,883.185 -246.865,908.602 	"/>
	<polygon points="-115.551,884.418 -114.686,834.816 -157.135,809.398 -200.449,833.583 -201.314,883.185 -158.865,908.602 	"/>
	<polygon fill="#1A2D33" points="-27.551,885.418 -26.686,835.816 -69.135,810.398 -112.449,834.583 -113.314,884.185 
		-70.865,909.602 	"/>
	<polygon points="-334.314,958.185 -291.865,983.602 -248.551,959.418 -247.686,909.816 -290.135,884.398 -333.449,908.583 	"/>
	<polygon points="-160.551,960.418 -159.686,910.816 -202.135,885.398 -245.449,909.583 -246.314,959.185 -203.865,984.602 	"/>
	<polygon points="-72.551,960.418 -71.686,910.816 -114.135,885.398 -157.449,909.583 -158.314,959.185 -115.865,984.602 	"/>
	<polygon points="15.449,961.418 16.314,911.816 -26.135,886.398 -69.449,910.583 -70.314,960.185 -27.865,985.602 	"/>
	<polygon fill="#1A2D33" points="60.449,885.418 61.314,835.816 18.865,810.398 -24.449,834.583 -25.314,884.185 17.135,909.602 	
		"/>
	<polygon fill="#1A2D33" points="148.449,886.418 149.314,836.816 106.865,811.398 63.551,835.583 62.686,885.185 105.135,910.602 	
		"/>
	<polygon fill="#1A2D33" points="236.449,886.418 237.314,836.816 194.865,811.398 151.551,835.583 150.686,885.185 
		193.135,910.602 	"/>
	<polygon fill="#1A2D33" points="324.449,887.418 325.314,837.816 282.865,812.398 239.551,836.583 238.686,886.185 
		281.135,911.602 	"/>
	<polygon points="103.449,961.418 104.314,911.816 61.865,886.398 18.551,910.583 17.686,960.185 60.135,985.602 	"/>
	<polygon points="191.449,962.418 192.314,912.816 149.865,887.398 106.551,911.583 105.686,961.185 148.135,986.602 	"/>
	<polygon points="279.449,962.418 280.314,912.816 237.865,887.398 194.551,911.583 193.686,961.185 236.135,986.602 	"/>
	<polygon points="367.449,963.418 368.314,913.816 325.865,888.398 282.551,912.583 281.686,962.185 324.135,987.602 	"/>
	<polygon points="-292.686,985.816 -335.135,960.398 -378.449,984.583 -379.314,1034.185 -336.865,1059.602 -293.551,1035.418 	"/>
	<polygon points="-204.686,986.816 -247.135,961.398 -290.449,985.583 -291.314,1035.185 -248.865,1060.602 -205.551,1036.418 	"/>
	<polygon points="-116.686,986.816 -159.135,961.398 -202.449,985.583 -203.314,1035.185 -160.865,1060.602 -117.551,1036.418 	"/>
	<polygon points="-28.686,987.816 -71.135,962.398 -114.449,986.583 -115.314,1036.185 -72.865,1061.602 -29.551,1037.418 	"/>
	<polygon points="-335.449,1060.583 -336.314,1110.185 -293.865,1135.602 -250.551,1111.418 -249.686,1061.816 -292.135,1036.398 	
		"/>
	<polygon points="-247.449,1061.583 -248.314,1111.185 -205.865,1136.602 -162.551,1112.418 -161.686,1062.816 -204.135,1037.398 	
		"/>
	<polygon points="-159.449,1061.583 -160.314,1111.185 -117.865,1136.602 -74.551,1112.418 -73.686,1062.816 -116.135,1037.398 	"/>
	<polygon points="-71.449,1062.583 -72.314,1112.185 -29.865,1137.602 13.449,1113.418 14.314,1063.816 -28.135,1038.398 	"/>
	<polygon points="59.314,987.816 16.865,962.398 -26.449,986.583 -27.314,1036.185 15.135,1061.602 58.449,1037.418 	"/>
	<polygon points="147.314,988.816 104.865,963.398 61.551,987.583 60.686,1037.185 103.135,1062.602 146.449,1038.418 	"/>
	<polygon points="235.314,988.816 192.865,963.398 149.551,987.583 148.686,1037.185 191.135,1062.602 234.449,1038.418 	"/>
	<polygon points="323.314,989.816 280.865,964.398 237.551,988.583 236.686,1038.185 279.135,1063.602 322.449,1039.418 	"/>
	<polygon points="16.551,1062.583 15.686,1112.185 58.135,1137.602 101.449,1113.418 102.314,1063.816 59.865,1038.398 	"/>
	<polygon points="104.551,1063.583 103.686,1113.185 146.135,1138.602 189.449,1114.418 190.314,1064.816 147.865,1039.398 	"/>
	<polygon points="192.551,1063.583 191.686,1113.185 234.135,1138.602 277.449,1114.418 278.314,1064.816 235.865,1039.398 	"/>
	<polygon points="280.551,1064.583 279.686,1114.185 322.135,1139.602 365.449,1115.418 366.314,1065.816 323.865,1040.398 	"/>
	<polygon fill="#1A2D33" points="416.449,583.418 417.314,533.816 374.865,508.398 331.551,532.583 330.686,582.185 
		373.135,607.602 	"/>
	<polygon fill="#1A2D33" points="504.449,584.418 505.314,534.816 462.865,509.398 419.551,533.583 418.686,583.185 
		461.135,608.602 	"/>
	<polygon fill="#1A2D33" points="592.449,584.418 593.314,534.816 550.865,509.398 507.551,533.583 506.686,583.185 
		549.135,608.602 	"/>
	<polygon fill="#1A2D33" points="680.449,585.418 681.314,535.816 638.865,510.398 595.551,534.583 594.686,584.185 
		637.135,609.602 	"/>
	<polygon fill="#1A2D33" points="459.449,659.418 460.314,609.816 417.865,584.398 374.551,608.583 373.686,658.185 
		416.135,683.602 	"/>
	<polygon fill="#1A2D33" points="547.449,660.418 548.314,610.816 505.865,585.398 462.551,609.583 461.686,659.185 
		504.135,684.602 	"/>
	<polygon fill="#1A2D33" points="635.449,660.418 636.314,610.816 593.865,585.398 550.551,609.583 549.686,659.185 
		592.135,684.602 	"/>
	<polygon fill="#1A2D33" points="723.449,661.418 724.314,611.816 681.865,586.398 638.551,610.583 637.686,660.185 
		680.135,685.602 	"/>
	<polygon fill="#1A2D33" points="768.449,585.418 769.314,535.816 726.865,510.398 683.551,534.583 682.686,584.185 
		725.135,609.602 	"/>
	<polygon fill="#1A2D33" points="856.449,586.418 857.314,536.816 814.865,511.398 771.551,535.583 770.686,585.185 
		813.135,610.602 	"/>
	<polygon fill="#1A2D33" points="944.449,586.418 945.314,536.816 902.865,511.398 859.551,535.583 858.686,585.185 
		901.135,610.602 	"/>
	<polygon fill="#1A2D33" points="1032.449,587.418 1033.314,537.816 990.865,512.398 947.551,536.583 946.686,586.185 
		989.135,611.602 	"/>
	<polygon fill="#1A2D33" points="811.449,661.418 812.314,611.816 769.865,586.398 726.551,610.583 725.686,660.185 
		768.135,685.602 	"/>
	<polygon fill="#1A2D33" points="899.449,662.418 900.314,612.816 857.865,587.398 814.551,611.583 813.686,661.185 
		856.135,686.602 	"/>
	<polygon fill="#1A2D33" points="987.449,662.418 988.314,612.816 945.865,587.398 902.551,611.583 901.686,661.185 
		944.135,686.602 	"/>
	<polygon fill="#1A2D33" points="1075.449,663.418 1076.314,613.816 1033.865,588.398 990.551,612.583 989.686,662.185 
		1032.135,687.602 	"/>
	<polygon fill="#1A2D33" points="414.449,735.418 415.314,685.816 372.865,660.398 329.551,684.583 328.686,734.185 
		371.135,759.602 	"/>
	<polygon fill="#1A2D33" points="502.449,736.418 503.314,686.816 460.865,661.398 417.551,685.583 416.686,735.185 
		459.135,760.602 	"/>
	<polygon fill="#1A2D33" points="590.449,736.418 591.314,686.816 548.865,661.398 505.551,685.583 504.686,735.185 
		547.135,760.602 	"/>
	<polygon fill="#1A2D33" points="678.449,737.418 679.314,687.816 636.865,662.398 593.551,686.583 592.686,736.185 
		635.135,761.602 	"/>
	<polygon fill="#1A2D33" points="457.449,811.418 458.314,761.816 415.865,736.398 372.551,760.583 371.686,810.185 
		414.135,835.602 	"/>
	<polygon fill="#1A2D33" points="545.449,812.418 546.314,762.816 503.865,737.398 460.551,761.583 459.686,811.185 
		502.135,836.602 	"/>
	<polygon fill="#1A2D33" points="633.449,812.418 634.314,762.816 591.865,737.398 548.551,761.583 547.686,811.185 
		590.135,836.602 	"/>
	<polygon fill="#1A2D33" points="721.449,813.418 722.314,763.816 679.865,738.398 636.551,762.583 635.686,812.185 
		678.135,837.602 	"/>
	<polygon fill="#1A2D33" points="766.449,737.418 767.314,687.816 724.865,662.398 681.551,686.583 680.686,736.185 
		723.135,761.602 	"/>
	<polygon fill="#1A2D33" points="854.449,738.418 855.314,688.816 812.865,663.398 769.551,687.583 768.686,737.185 
		811.135,762.602 	"/>
	<polygon fill="#1A2D33" points="942.449,738.418 943.314,688.816 900.865,663.398 857.551,687.583 856.686,737.185 
		899.135,762.602 	"/>
	<polygon fill="#1A2D33" points="1030.449,739.418 1031.314,689.816 988.865,664.398 945.551,688.583 944.686,738.185 
		987.135,763.602 	"/>
	<polygon fill="#1A2D33" points="809.449,813.418 810.314,763.816 767.865,738.398 724.551,762.583 723.686,812.185 
		766.135,837.602 	"/>
	<polygon fill="#1A2D33" points="897.449,814.418 898.314,764.816 855.865,739.398 812.551,763.583 811.686,813.185 
		854.135,838.602 	"/>
	<polygon fill="#1A2D33" points="985.449,814.418 986.314,764.816 943.865,739.398 900.551,763.583 899.686,813.185 
		942.135,838.602 	"/>
	<polygon fill="#1A2D33" points="1073.449,815.418 1074.314,765.816 1031.865,740.398 988.551,764.583 987.686,814.185 
		1030.135,839.602 	"/>
	<polygon fill="#1A2D33" points="412.449,887.418 413.314,837.816 370.865,812.398 327.551,836.583 326.686,886.185 
		369.135,911.602 	"/>
	<polygon fill="#1A2D33" points="500.449,888.418 501.314,838.816 458.865,813.398 415.551,837.583 414.686,887.185 
		457.135,912.602 	"/>
	<polygon fill="#1A2D33" points="588.449,888.418 589.314,838.816 546.865,813.398 503.551,837.583 502.686,887.185 
		545.135,912.602 	"/>
	<polygon fill="#1A2D33" points="676.449,889.418 677.314,839.816 634.865,814.398 591.551,838.583 590.686,888.185 
		633.135,913.602 	"/>
	<polygon points="455.449,963.418 456.314,913.816 413.865,888.398 370.551,912.583 369.686,962.185 412.135,987.602 	"/>
	<polygon points="543.449,964.418 544.314,914.816 501.865,889.398 458.551,913.583 457.686,963.185 500.135,988.602 	"/>
	<polygon points="631.449,964.418 632.314,914.816 589.865,889.398 546.551,913.583 545.686,963.185 588.135,988.602 	"/>
	<polygon points="719.449,965.418 720.314,915.816 677.865,890.398 634.551,914.583 633.686,964.185 676.135,989.602 	"/>
	<polygon fill="#1A2D33" points="764.449,889.418 765.314,839.816 722.865,814.398 679.551,838.583 678.686,888.185 
		721.135,913.602 	"/>
	<polygon fill="#1A2D33" points="852.449,890.418 853.314,840.816 810.865,815.398 767.551,839.583 766.686,889.185 
		809.135,914.602 	"/>
	<polygon fill="#1A2D33" points="940.449,890.418 941.314,840.816 898.865,815.398 855.551,839.583 854.686,889.185 
		897.135,914.602 	"/>
	<polygon fill="#1A2D33" points="1028.449,891.418 1029.314,841.816 986.865,816.398 943.551,840.583 942.686,890.185 
		985.135,915.602 	"/>
	<polygon points="807.449,965.418 808.314,915.816 765.865,890.398 722.551,914.583 721.686,964.185 764.135,989.602 	"/>
	<polygon points="895.449,966.418 896.314,916.816 853.865,891.398 810.551,915.583 809.686,965.185 852.135,990.602 	"/>
	<polygon points="983.449,966.418 984.314,916.816 941.865,891.398 898.551,915.583 897.686,965.185 940.135,990.602 	"/>
	<polygon points="1071.449,967.418 1072.314,917.816 1029.865,892.398 986.551,916.583 985.686,966.185 1028.135,991.602 	"/>
	<polygon points="411.314,989.816 368.865,964.398 325.551,988.583 324.686,1038.185 367.135,1063.602 410.449,1039.418 	"/>
	<polygon points="499.314,990.816 456.865,965.398 413.551,989.583 412.686,1039.185 455.135,1064.602 498.449,1040.418 	"/>
	<polygon points="587.314,990.816 544.865,965.398 501.551,989.583 500.686,1039.185 543.135,1064.602 586.449,1040.418 	"/>
	<polygon points="675.314,991.816 632.865,966.398 589.551,990.583 588.686,1040.185 631.135,1065.602 674.449,1041.418 	"/>
	<polygon points="368.551,1064.583 367.686,1114.185 410.135,1139.602 453.449,1115.418 454.314,1065.816 411.865,1040.398 	"/>
	<polygon points="456.551,1065.583 455.686,1115.185 498.135,1140.602 541.449,1116.418 542.314,1066.816 499.865,1041.398 	"/>
	<polygon points="544.551,1065.583 543.686,1115.185 586.135,1140.602 629.449,1116.418 630.314,1066.816 587.865,1041.398 	"/>
	<polygon points="632.551,1066.583 631.686,1116.185 674.135,1141.602 717.449,1117.418 718.314,1067.816 675.865,1042.398 	"/>
	<polygon points="763.314,991.816 720.865,966.398 677.551,990.583 676.686,1040.185 719.135,1065.602 762.449,1041.418 	"/>
	<polygon points="851.314,992.816 808.865,967.398 765.551,991.583 764.686,1041.185 807.135,1066.602 850.449,1042.418 	"/>
	<polygon points="939.314,992.816 896.865,967.398 853.551,991.583 852.686,1041.185 895.135,1066.602 938.449,1042.418 	"/>
	<polygon points="1027.314,993.816 984.865,968.398 941.551,992.583 940.686,1042.185 983.135,1067.602 1026.449,1043.418 	"/>
	<polygon points="720.551,1066.583 719.686,1116.185 762.135,1141.602 805.449,1117.418 806.314,1067.816 763.865,1042.398 	"/>
	<polygon points="808.551,1067.583 807.686,1117.185 850.135,1142.602 893.449,1118.418 894.314,1068.816 851.865,1043.398 	"/>
	<polygon points="896.551,1067.583 895.686,1117.185 938.135,1142.602 981.449,1118.418 982.314,1068.816 939.865,1043.398 	"/>
	<polygon points="984.551,1068.583 983.686,1118.185 1026.135,1143.602 1069.449,1119.418 1070.314,1069.816 1027.865,1044.398 	"/>
	<polygon points="1216.449,-20.582 1217.314,-70.184 1174.865,-95.602 1131.551,-71.417 1130.686,-21.815 1173.135,3.602 	"/>
	<polygon points="1304.449,-19.582 1305.314,-69.184 1262.865,-94.602 1219.551,-70.417 1218.686,-20.815 1261.135,4.602 	"/>
	<polygon points="1392.449,-19.582 1393.314,-69.184 1350.865,-94.602 1307.551,-70.417 1306.686,-20.815 1349.135,4.602 	"/>
	<polygon points="1480.449,-18.582 1481.314,-68.184 1438.865,-93.602 1395.551,-69.417 1394.686,-19.815 1437.135,5.602 	"/>
	<polygon fill="#1A2D33" points="1173.686,54.185 1216.135,79.602 1259.449,55.418 1260.314,5.816 1217.865,-19.602 1174.551,4.583 
			"/>
	<polygon fill="#1A2D33" points="1261.686,55.185 1304.135,80.602 1347.449,56.418 1348.314,6.816 1305.865,-18.602 1262.551,5.583 
			"/>
	<polygon fill="#1A2D33" points="1349.686,55.185 1392.135,80.602 1435.449,56.418 1436.314,6.816 1393.865,-18.602 1350.551,5.583 
			"/>
	<polygon points="1437.686,56.185 1480.135,81.602 1523.449,57.418 1524.314,7.816 1481.865,-17.602 1438.551,6.583 	"/>
	<polygon points="1568.449,-18.582 1569.314,-68.184 1526.865,-93.602 1483.551,-69.417 1482.686,-19.815 1525.135,5.602 	"/>
	<polygon points="1656.449,-17.582 1657.314,-67.184 1614.865,-92.602 1571.551,-68.417 1570.686,-18.815 1613.135,6.602 	"/>
	<polygon points="1744.449,-17.582 1745.314,-67.184 1702.865,-92.602 1659.551,-68.417 1658.686,-18.815 1701.135,6.602 	"/>
	<polygon points="1832.449,-16.582 1833.314,-66.184 1790.865,-91.602 1747.551,-67.417 1746.686,-17.815 1789.135,7.602 	"/>
	<polygon points="1525.686,56.185 1568.135,81.602 1611.449,57.418 1612.314,7.816 1569.865,-17.602 1526.551,6.583 	"/>
	<polygon points="1613.686,57.185 1656.135,82.602 1699.449,58.418 1700.314,8.816 1657.865,-16.602 1614.551,7.583 	"/>
	<polygon points="1701.686,57.185 1744.135,82.602 1787.449,58.418 1788.314,8.816 1745.865,-16.602 1702.551,7.583 	"/>
	<polygon points="1789.686,58.185 1832.135,83.602 1875.449,59.418 1876.314,9.816 1833.865,-15.602 1790.551,8.583 	"/>
	<polygon fill="#1A2D33" points="1129.551,80.583 1128.686,130.185 1171.135,155.602 1214.449,131.418 1215.314,81.816 
		1172.865,56.398 	"/>
	<polygon fill="#1A2D33" points="1217.551,81.583 1216.686,131.185 1259.135,156.602 1302.449,132.418 1303.314,82.816 
		1260.865,57.398 	"/>
	<polygon fill="#1A2D33" points="1305.551,81.583 1304.686,131.185 1347.135,156.602 1390.449,132.418 1391.314,82.816 
		1348.865,57.398 	"/>
	<polygon points="1393.551,82.583 1392.686,132.185 1435.135,157.602 1478.449,133.418 1479.314,83.816 1436.865,58.398 	"/>
	<polygon fill="#1A2D33" points="1172.551,156.583 1171.686,206.185 1214.135,231.602 1257.449,207.418 1258.314,157.816 
		1215.865,132.398 	"/>
	<polygon fill="#1A2D33" points="1260.551,157.583 1259.686,207.185 1302.135,232.602 1345.449,208.418 1346.314,158.816 
		1303.865,133.398 	"/>
	<polygon fill="#1A2D33" points="1348.551,157.583 1347.686,207.185 1390.135,232.602 1433.449,208.418 1434.314,158.816 
		1391.865,133.398 	"/>
	<polygon points="1436.551,158.583 1435.686,208.185 1478.135,233.602 1521.449,209.418 1522.314,159.816 1479.865,134.398 	"/>
	<polygon points="1481.551,82.583 1480.686,132.185 1523.135,157.602 1566.449,133.418 1567.314,83.816 1524.865,58.398 	"/>
	<polygon points="1569.551,83.583 1568.686,133.185 1611.135,158.602 1654.449,134.418 1655.314,84.816 1612.865,59.398 	"/>
	<polygon points="1657.551,83.583 1656.686,133.185 1699.135,158.602 1742.449,134.418 1743.314,84.816 1700.865,59.398 	"/>
	<polygon points="1745.551,84.583 1744.686,134.185 1787.135,159.602 1830.449,135.418 1831.314,85.816 1788.865,60.398 	"/>
	<polygon points="1524.551,158.583 1523.686,208.185 1566.135,233.602 1609.449,209.418 1610.314,159.816 1567.865,134.398 	"/>
	<polygon points="1612.551,159.583 1611.686,209.185 1654.135,234.602 1697.449,210.418 1698.314,160.816 1655.865,135.398 	"/>
	<polygon points="1700.551,159.583 1699.686,209.185 1742.135,234.602 1785.449,210.418 1786.314,160.816 1743.865,135.398 	"/>
	<polygon points="1788.551,160.583 1787.686,210.185 1830.135,235.602 1873.449,211.418 1874.314,161.816 1831.865,136.398 	"/>
	<polygon fill="#1A2D33" points="1127.551,232.583 1126.686,282.185 1169.135,307.602 1212.449,283.418 1213.314,233.816 
		1170.865,208.398 	"/>
	<polygon fill="#1A2D33" points="1215.551,233.583 1214.686,283.185 1257.135,308.602 1300.449,284.418 1301.314,234.816 
		1258.865,209.398 	"/>
	<polygon fill="#1A2D33" points="1303.551,233.583 1302.686,283.185 1345.135,308.602 1388.449,284.418 1389.314,234.816 
		1346.865,209.398 	"/>
	<polygon points="1391.551,234.583 1390.686,284.185 1433.135,309.602 1476.449,285.418 1477.314,235.816 1434.865,210.398 	"/>
	<polygon fill="#1A2D33" points="1170.551,308.583 1169.686,358.185 1212.135,383.602 1255.449,359.418 1256.314,309.816 
		1213.865,284.398 	"/>
	<polygon fill="#1A2D33" points="1258.551,309.583 1257.686,359.185 1300.135,384.602 1343.449,360.418 1344.314,310.816 
		1301.865,285.398 	"/>
	<polygon points="1346.551,309.583 1345.686,359.185 1388.135,384.602 1431.449,360.418 1432.314,310.816 1389.865,285.398 	"/>
	<polygon points="1434.551,310.583 1433.686,360.185 1476.135,385.602 1519.449,361.418 1520.314,311.816 1477.865,286.398 	"/>
	<polygon points="1479.551,234.583 1478.686,284.185 1521.135,309.602 1564.449,285.418 1565.314,235.816 1522.865,210.398 	"/>
	<polygon points="1567.551,235.583 1566.686,285.185 1609.135,310.602 1652.449,286.418 1653.314,236.816 1610.865,211.398 	"/>
	<polygon points="1655.551,235.583 1654.686,285.185 1697.135,310.602 1740.449,286.418 1741.314,236.816 1698.865,211.398 	"/>
	<polygon points="1743.551,236.583 1742.686,286.185 1785.135,311.602 1828.449,287.418 1829.314,237.816 1786.865,212.398 	"/>
	<polygon points="1522.551,310.583 1521.686,360.185 1564.135,385.602 1607.449,361.418 1608.314,311.816 1565.865,286.398 	"/>
	<polygon points="1610.551,311.583 1609.686,361.185 1652.135,386.602 1695.449,362.418 1696.314,312.816 1653.865,287.398 	"/>
	<polygon points="1698.551,311.583 1697.686,361.185 1740.135,386.602 1783.449,362.418 1784.314,312.816 1741.865,287.398 	"/>
	<polygon points="1786.551,312.583 1785.686,362.185 1828.135,387.602 1871.449,363.418 1872.314,313.816 1829.865,288.398 	"/>
	<polygon fill="#1A2D33" points="1125.551,384.583 1124.686,434.185 1167.135,459.602 1210.449,435.418 1211.314,385.816 
		1168.865,360.398 	"/>
	<polygon fill="#1A2D33" points="1213.551,385.583 1212.686,435.185 1255.135,460.602 1298.449,436.418 1299.314,386.816 
		1256.865,361.398 	"/>
	<polygon fill="#1A2D33" points="1301.551,385.583 1300.686,435.185 1343.135,460.602 1386.449,436.418 1387.314,386.816 
		1344.865,361.398 	"/>
	<polygon points="1389.551,386.583 1388.686,436.185 1431.135,461.602 1474.449,437.418 1475.314,387.816 1432.865,362.398 	"/>
	<polygon fill="#1A2D33" points="1168.551,460.583 1167.686,510.185 1210.135,535.602 1253.449,511.418 1254.314,461.816 
		1211.865,436.398 	"/>
	<polygon fill="#1A2D33" points="1256.551,461.583 1255.686,511.185 1298.135,536.602 1341.449,512.418 1342.314,462.816 
		1299.865,437.398 	"/>
	<polygon fill="#1A2D33" points="1344.551,461.583 1343.686,511.185 1386.135,536.602 1429.449,512.418 1430.314,462.816 
		1387.865,437.398 	"/>
	<polygon points="1432.551,462.583 1431.686,512.185 1474.135,537.602 1517.449,513.418 1518.314,463.816 1475.865,438.398 	"/>
	<polygon points="1477.551,386.583 1476.686,436.185 1519.135,461.602 1562.449,437.418 1563.314,387.816 1520.865,362.398 	"/>
	<polygon points="1565.551,387.583 1564.686,437.185 1607.135,462.602 1650.449,438.418 1651.314,388.816 1608.865,363.398 	"/>
	<polygon points="1653.551,387.583 1652.686,437.185 1695.135,462.602 1738.449,438.418 1739.314,388.816 1696.865,363.398 	"/>
	<polygon points="1741.551,388.583 1740.686,438.185 1783.135,463.602 1826.449,439.418 1827.314,389.816 1784.865,364.398 	"/>
	<polygon points="1520.551,462.583 1519.686,512.185 1562.135,537.602 1605.449,513.418 1606.314,463.816 1563.865,438.398 	"/>
	<polygon points="1608.551,463.583 1607.686,513.185 1650.135,538.602 1693.449,514.418 1694.314,464.816 1651.865,439.398 	"/>
	<polygon points="1696.551,463.583 1695.686,513.185 1738.135,538.602 1781.449,514.418 1782.314,464.816 1739.865,439.398 	"/>
	<polygon points="1784.551,464.583 1783.686,514.185 1826.135,539.602 1869.449,515.418 1870.314,465.816 1827.865,440.398 	"/>
	<polygon points="1920.449,-16.582 1921.314,-66.184 1878.865,-91.602 1835.551,-67.417 1834.686,-17.815 1877.135,7.602 	"/>
	<polygon points="2008.449,-15.582 2009.314,-65.184 1966.865,-90.602 1923.551,-66.417 1922.686,-16.815 1965.135,8.602 	"/>
	<polygon points="2096.449,-15.582 2097.314,-65.184 2054.865,-90.602 2011.551,-66.417 2010.686,-16.815 2053.135,8.602 	"/>
	<polygon points="2184.449,-14.582 2185.314,-64.184 2142.865,-89.602 2099.551,-65.417 2098.686,-15.815 2141.135,9.602 	"/>
	<polygon points="1877.686,58.185 1920.135,83.602 1963.449,59.418 1964.314,9.816 1921.865,-15.602 1878.551,8.583 	"/>
	<polygon points="1965.686,59.185 2008.135,84.602 2051.449,60.418 2052.314,10.816 2009.865,-14.602 1966.551,9.583 	"/>
	<polygon points="2053.686,59.185 2096.135,84.602 2139.449,60.418 2140.314,10.816 2097.865,-14.602 2054.551,9.583 	"/>
	<polygon points="2141.686,60.185 2184.135,85.602 2227.449,61.418 2228.314,11.816 2185.865,-13.602 2142.551,10.583 	"/>
	<polygon points="2272.449,-14.582 2273.314,-64.184 2230.865,-89.602 2187.551,-65.417 2186.686,-15.815 2229.135,9.602 	"/>
	<polygon points="2360.449,-13.582 2361.314,-63.184 2318.865,-88.602 2275.551,-64.417 2274.686,-14.815 2317.135,10.602 	"/>
	<polygon points="2448.449,-13.582 2449.314,-63.184 2406.865,-88.602 2363.551,-64.417 2362.686,-14.815 2405.135,10.602 	"/>
	<polygon points="2536.449,-12.582 2537.314,-62.184 2494.865,-87.602 2451.551,-63.417 2450.686,-13.815 2493.135,11.602 	"/>
	<polygon points="2229.686,60.185 2272.135,85.602 2315.449,61.418 2316.314,11.816 2273.865,-13.602 2230.551,10.583 	"/>
	<polygon points="2317.686,61.185 2360.135,86.602 2403.449,62.418 2404.314,12.816 2361.865,-12.602 2318.551,11.583 	"/>
	<polygon points="2405.686,61.185 2448.135,86.602 2491.449,62.418 2492.314,12.816 2449.865,-12.602 2406.551,11.583 	"/>
	<polygon points="2537.865,-11.602 2494.551,12.583 2493.686,62.185 2536.135,87.602 2579.449,63.418 2580.314,13.816 	"/>
	<polygon points="1833.551,84.583 1832.686,134.185 1875.135,159.602 1918.449,135.418 1919.314,85.816 1876.865,60.398 	"/>
	<polygon points="1921.551,85.583 1920.686,135.185 1963.135,160.602 2006.449,136.418 2007.314,86.816 1964.865,61.398 	"/>
	<polygon points="2009.551,85.583 2008.686,135.185 2051.135,160.602 2094.449,136.418 2095.314,86.816 2052.865,61.398 	"/>
	<polygon points="2097.551,86.583 2096.686,136.185 2139.135,161.602 2182.449,137.418 2183.314,87.816 2140.865,62.398 	"/>
	<polygon points="1876.551,160.583 1875.686,210.185 1918.135,235.602 1961.449,211.418 1962.314,161.816 1919.865,136.398 	"/>
	<polygon points="1964.551,161.583 1963.686,211.185 2006.135,236.602 2049.449,212.418 2050.314,162.816 2007.865,137.398 	"/>
	<polygon points="2052.551,161.583 2051.686,211.185 2094.135,236.602 2137.449,212.418 2138.314,162.816 2095.865,137.398 	"/>
	<polygon points="2140.551,162.583 2139.686,212.185 2182.135,237.602 2225.449,213.418 2226.314,163.816 2183.865,138.398 	"/>
	<polygon points="2185.551,86.583 2184.686,136.185 2227.135,161.602 2270.449,137.418 2271.314,87.816 2228.865,62.398 	"/>
	<polygon points="2273.551,87.583 2272.686,137.185 2315.135,162.602 2358.449,138.418 2359.314,88.816 2316.865,63.398 	"/>
	<polygon points="2361.551,87.583 2360.686,137.185 2403.135,162.602 2446.449,138.418 2447.314,88.816 2404.865,63.398 	"/>
	<polygon points="2535.314,89.816 2492.865,64.398 2449.551,88.583 2448.686,138.185 2491.135,163.602 2534.449,139.418 	"/>
	<polygon points="2228.551,162.583 2227.686,212.185 2270.135,237.602 2313.449,213.418 2314.314,163.816 2271.865,138.398 	"/>
	<polygon points="2316.551,163.583 2315.686,213.185 2358.135,238.602 2401.449,214.418 2402.314,164.816 2359.865,139.398 	"/>
	<polygon points="2489.449,214.418 2490.314,164.816 2447.865,139.398 2404.551,163.583 2403.686,213.185 2446.135,238.602 	"/>
	<polygon points="2492.551,164.583 2491.686,214.185 2534.135,239.602 2577.449,215.418 2578.314,165.816 2535.865,140.398 	"/>
	<polygon points="1831.551,236.583 1830.686,286.185 1873.135,311.602 1916.449,287.418 1917.314,237.816 1874.865,212.398 	"/>
	<polygon points="1919.551,237.583 1918.686,287.185 1961.135,312.602 2004.449,288.418 2005.314,238.816 1962.865,213.398 	"/>
	<polygon points="2007.551,237.583 2006.686,287.185 2049.135,312.602 2092.449,288.418 2093.314,238.816 2050.865,213.398 	"/>
	<polygon points="2095.551,238.583 2094.686,288.185 2137.135,313.602 2180.449,289.418 2181.314,239.816 2138.865,214.398 	"/>
	<polygon points="1874.551,312.583 1873.686,362.185 1916.135,387.602 1959.449,363.418 1960.314,313.816 1917.865,288.398 	"/>
	<polygon points="1962.551,313.583 1961.686,363.185 2004.135,388.602 2047.449,364.418 2048.314,314.816 2005.865,289.398 	"/>
	<polygon points="2050.551,313.583 2049.686,363.185 2092.135,388.602 2135.449,364.418 2136.314,314.816 2093.865,289.398 	"/>
	<polygon points="2138.551,314.583 2137.686,364.185 2180.135,389.602 2223.449,365.418 2224.314,315.816 2181.865,290.398 	"/>
	<polygon points="2183.551,238.583 2182.686,288.185 2225.135,313.602 2268.449,289.418 2269.314,239.816 2226.865,214.398 	"/>
	<polygon points="2357.314,240.816 2314.865,215.398 2271.551,239.583 2270.686,289.185 2313.135,314.602 2356.449,290.418 	"/>
	<polygon points="2444.449,290.418 2445.314,240.816 2402.865,215.398 2359.551,239.583 2358.686,289.185 2401.135,314.602 	"/>
	<polygon points="2532.449,291.418 2533.314,241.816 2490.865,216.398 2447.551,240.583 2446.686,290.185 2489.135,315.602 	"/>
	<polygon points="2226.551,314.583 2225.686,364.185 2268.135,389.602 2311.449,365.418 2312.314,315.816 2269.865,290.398 	"/>
	<polygon points="2400.314,316.816 2357.865,291.398 2314.551,315.583 2313.686,365.185 2356.135,390.602 2399.449,366.418 	"/>
	<polygon points="2487.449,366.418 2488.314,316.816 2445.865,291.398 2402.551,315.583 2401.686,365.185 2444.135,390.602 	"/>
	<polygon points="2490.551,316.583 2489.686,366.185 2532.135,391.602 2575.449,367.418 2576.314,317.816 2533.865,292.398 	"/>
	<polygon points="1829.551,388.583 1828.686,438.185 1871.135,463.602 1914.449,439.418 1915.314,389.816 1872.865,364.398 	"/>
	<polygon points="1917.551,389.583 1916.686,439.185 1959.135,464.602 2002.449,440.418 2003.314,390.816 1960.865,365.398 	"/>
	<polygon points="2005.551,389.583 2004.686,439.185 2047.135,464.602 2090.449,440.418 2091.314,390.816 2048.865,365.398 	"/>
	<polygon points="2093.551,390.583 2092.686,440.185 2135.135,465.602 2178.449,441.418 2179.314,391.816 2136.865,366.398 	"/>
	<polygon points="1872.551,464.583 1871.686,514.185 1914.135,539.602 1957.449,515.418 1958.314,465.816 1915.865,440.398 	"/>
	<polygon points="1960.551,465.583 1959.686,515.185 2002.135,540.602 2045.449,516.418 2046.314,466.816 2003.865,441.398 	"/>
	<polygon points="2048.551,465.583 2047.686,515.185 2090.135,540.602 2133.449,516.418 2134.314,466.816 2091.865,441.398 	"/>
	<polygon points="2136.551,466.583 2135.686,516.185 2178.135,541.602 2221.449,517.418 2222.314,467.816 2179.865,442.398 	"/>
	<polygon points="2181.551,390.583 2180.686,440.185 2223.135,465.602 2266.449,441.418 2267.314,391.816 2224.865,366.398 	"/>
	<polygon points="2355.314,392.816 2312.865,367.398 2269.551,391.583 2268.686,441.185 2311.135,466.602 2354.449,442.418 	"/>
	<polygon points="2443.314,392.816 2400.865,367.398 2357.551,391.583 2356.686,441.185 2399.135,466.602 2442.449,442.418 	"/>
	<polygon points="2531.314,393.816 2488.865,368.398 2445.551,392.583 2444.686,442.185 2487.135,467.602 2530.449,443.418 	"/>
	<polygon points="2223.686,516.185 2266.135,541.602 2309.449,517.418 2310.314,467.816 2267.865,442.398 2224.551,466.583 	"/>
	<polygon points="2398.314,468.816 2355.865,443.398 2312.551,467.583 2311.686,517.185 2354.135,542.602 2397.449,518.418 	"/>
	<polygon points="2400.551,467.583 2399.686,517.185 2442.135,542.602 2485.449,518.418 2486.314,468.816 2443.865,443.398 	"/>
	<polygon points="2488.551,468.583 2487.686,518.185 2530.135,543.602 2573.449,519.418 2574.314,469.816 2531.865,444.398 	"/>
	<polygon fill="#1A2D33" points="1120.449,587.418 1121.314,537.816 1078.865,512.398 1035.551,536.583 1034.686,586.185 
		1077.135,611.602 	"/>
	<polygon fill="#1A2D33" points="1208.449,588.418 1209.314,538.816 1166.865,513.398 1123.551,537.583 1122.686,587.185 
		1165.135,612.602 	"/>
	<polygon fill="#1A2D33" points="1296.449,588.418 1297.314,538.816 1254.865,513.398 1211.551,537.583 1210.686,587.185 
		1253.135,612.602 	"/>
	<polygon fill="#1A2D33" points="1384.449,589.418 1385.314,539.816 1342.865,514.398 1299.551,538.583 1298.686,588.185 
		1341.135,613.602 	"/>
	<polygon fill="#1A2D33" points="1163.449,663.418 1164.314,613.816 1121.865,588.398 1078.551,612.583 1077.686,662.185 
		1120.135,687.602 	"/>
	<polygon fill="#1A2D33" points="1251.449,664.418 1252.314,614.816 1209.865,589.398 1166.551,613.583 1165.686,663.185 
		1208.135,688.602 	"/>
	<polygon fill="#1A2D33" points="1339.449,664.418 1340.314,614.816 1297.865,589.398 1254.551,613.583 1253.686,663.185 
		1296.135,688.602 	"/>
	<polygon fill="#1A2D33" points="1427.449,665.418 1428.314,615.816 1385.865,590.398 1342.551,614.583 1341.686,664.185 
		1384.135,689.602 	"/>
	<polygon points="1472.449,589.418 1473.314,539.816 1430.865,514.398 1387.551,538.583 1386.686,588.185 1429.135,613.602 	"/>
	<polygon points="1560.449,590.418 1561.314,540.816 1518.865,515.398 1475.551,539.583 1474.686,589.185 1517.135,614.602 	"/>
	<polygon points="1648.449,590.418 1649.314,540.816 1606.865,515.398 1563.551,539.583 1562.686,589.185 1605.135,614.602 	"/>
	<polygon points="1736.449,591.418 1737.314,541.816 1694.865,516.398 1651.551,540.583 1650.686,590.185 1693.135,615.602 	"/>
	<polygon points="1515.449,665.418 1516.314,615.816 1473.865,590.398 1430.551,614.583 1429.686,664.185 1472.135,689.602 	"/>
	<polygon points="1603.449,666.418 1604.314,616.816 1561.865,591.398 1518.551,615.583 1517.686,665.185 1560.135,690.602 	"/>
	<polygon points="1691.449,666.418 1692.314,616.816 1649.865,591.398 1606.551,615.583 1605.686,665.185 1648.135,690.602 	"/>
	<polygon points="1779.449,667.418 1780.314,617.816 1737.865,592.398 1694.551,616.583 1693.686,666.185 1736.135,691.602 	"/>
	<polygon fill="#1A2D33" points="1118.449,739.418 1119.314,689.816 1076.865,664.398 1033.551,688.583 1032.686,738.185 
		1075.135,763.602 	"/>
	<polygon fill="#1A2D33" points="1206.449,740.418 1207.314,690.816 1164.865,665.398 1121.551,689.583 1120.686,739.185 
		1163.135,764.602 	"/>
	<polygon fill="#1A2D33" points="1294.449,740.418 1295.314,690.816 1252.865,665.398 1209.551,689.583 1208.686,739.185 
		1251.135,764.602 	"/>
	<polygon fill="#1A2D33" points="1382.449,741.418 1383.314,691.816 1340.865,666.398 1297.551,690.583 1296.686,740.185 
		1339.135,765.602 	"/>
	<polygon fill="#1A2D33" points="1161.449,815.418 1162.314,765.816 1119.865,740.398 1076.551,764.583 1075.686,814.185 
		1118.135,839.602 	"/>
	<polygon fill="#1A2D33" points="1249.449,816.418 1250.314,766.816 1207.865,741.398 1164.551,765.583 1163.686,815.185 
		1206.135,840.602 	"/>
	<polygon fill="#1A2D33" points="1337.449,816.418 1338.314,766.816 1295.865,741.398 1252.551,765.583 1251.686,815.185 
		1294.135,840.602 	"/>
	<polygon fill="#1A2D33" points="1425.449,817.418 1426.314,767.816 1383.865,742.398 1340.551,766.583 1339.686,816.185 
		1382.135,841.602 	"/>
	<polygon points="1470.449,741.418 1471.314,691.816 1428.865,666.398 1385.551,690.583 1384.686,740.185 1427.135,765.602 	"/>
	<polygon points="1558.449,742.418 1559.314,692.816 1516.865,667.398 1473.551,691.583 1472.686,741.185 1515.135,766.602 	"/>
	<polygon points="1646.449,742.418 1647.314,692.816 1604.865,667.398 1561.551,691.583 1560.686,741.185 1603.135,766.602 	"/>
	<polygon points="1734.449,743.418 1735.314,693.816 1692.865,668.398 1649.551,692.583 1648.686,742.185 1691.135,767.602 	"/>
	<polygon points="1513.449,817.418 1514.314,767.816 1471.865,742.398 1428.551,766.583 1427.686,816.185 1470.135,841.602 	"/>
	<polygon points="1601.449,818.418 1602.314,768.816 1559.865,743.398 1516.551,767.583 1515.686,817.185 1558.135,842.602 	"/>
	<polygon points="1689.449,818.418 1690.314,768.816 1647.865,743.398 1604.551,767.583 1603.686,817.185 1646.135,842.602 	"/>
	<polygon points="1777.449,819.418 1778.314,769.816 1735.865,744.398 1692.551,768.583 1691.686,818.185 1734.135,843.602 	"/>
	<polygon fill="#1A2D33" points="1116.449,891.418 1117.314,841.816 1074.865,816.398 1031.551,840.583 1030.686,890.185 
		1073.135,915.602 	"/>
	<polygon fill="#1A2D33" points="1204.449,892.418 1205.314,842.816 1162.865,817.398 1119.551,841.583 1118.686,891.185 
		1161.135,916.602 	"/>
	<polygon fill="#1A2D33" points="1292.449,892.418 1293.314,842.816 1250.865,817.398 1207.551,841.583 1206.686,891.185 
		1249.135,916.602 	"/>
	<polygon fill="#1A2D33" points="1380.449,893.418 1381.314,843.816 1338.865,818.398 1295.551,842.583 1294.686,892.185 
		1337.135,917.602 	"/>
	<polygon points="1159.449,967.418 1160.314,917.816 1117.865,892.398 1074.551,916.583 1073.686,966.185 1116.135,991.602 	"/>
	<polygon points="1247.449,968.418 1248.314,918.816 1205.865,893.398 1162.551,917.583 1161.686,967.185 1204.135,992.602 	"/>
	<polygon points="1335.449,968.418 1336.314,918.816 1293.865,893.398 1250.551,917.583 1249.686,967.185 1292.135,992.602 	"/>
	<polygon points="1423.449,969.418 1424.314,919.816 1381.865,894.398 1338.551,918.583 1337.686,968.185 1380.135,993.602 	"/>
	<polygon points="1468.449,893.418 1469.314,843.816 1426.865,818.398 1383.551,842.583 1382.686,892.185 1425.135,917.602 	"/>
	<polygon points="1556.449,894.418 1557.314,844.816 1514.865,819.398 1471.551,843.583 1470.686,893.185 1513.135,918.602 	"/>
	<polygon points="1644.449,894.418 1645.314,844.816 1602.865,819.398 1559.551,843.583 1558.686,893.185 1601.135,918.602 	"/>
	<polygon points="1732.449,895.418 1733.314,845.816 1690.865,820.398 1647.551,844.583 1646.686,894.185 1689.135,919.602 	"/>
	<polygon points="1511.449,969.418 1512.314,919.816 1469.865,894.398 1426.551,918.583 1425.686,968.185 1468.135,993.602 	"/>
	<polygon points="1599.449,970.418 1600.314,920.816 1557.865,895.398 1514.551,919.583 1513.686,969.185 1556.135,994.602 	"/>
	<polygon points="1687.449,970.418 1688.314,920.816 1645.865,895.398 1602.551,919.583 1601.686,969.185 1644.135,994.602 	"/>
	<polygon points="1775.449,971.418 1776.314,921.816 1733.865,896.398 1690.551,920.583 1689.686,970.185 1732.135,995.602 	"/>
	<polygon points="1115.314,993.816 1072.865,968.398 1029.551,992.583 1028.686,1042.185 1071.135,1067.602 1114.449,1043.418 	"/>
	<polygon points="1203.314,994.816 1160.865,969.398 1117.551,993.583 1116.686,1043.185 1159.135,1068.602 1202.449,1044.418 	"/>
	<polygon points="1291.314,994.816 1248.865,969.398 1205.551,993.583 1204.686,1043.185 1247.135,1068.602 1290.449,1044.418 	"/>
	<polygon points="1379.314,995.816 1336.865,970.398 1293.551,994.583 1292.686,1044.185 1335.135,1069.602 1378.449,1045.418 	"/>
	<polygon points="1072.551,1068.583 1071.686,1118.185 1114.135,1143.602 1157.449,1119.418 1158.314,1069.816 1115.865,1044.398 	
		"/>
	<polygon points="1160.551,1069.583 1159.686,1119.185 1202.135,1144.602 1245.449,1120.418 1246.314,1070.816 1203.865,1045.398 	
		"/>
	<polygon points="1248.551,1069.583 1247.686,1119.185 1290.135,1144.602 1333.449,1120.418 1334.314,1070.816 1291.865,1045.398 	
		"/>
	<polygon points="1336.551,1070.583 1335.686,1120.185 1378.135,1145.602 1421.449,1121.418 1422.314,1071.816 1379.865,1046.398 	
		"/>
	<polygon points="1467.314,995.816 1424.865,970.398 1381.551,994.583 1380.686,1044.185 1423.135,1069.602 1466.449,1045.418 	"/>
	<polygon points="1555.314,996.816 1512.865,971.398 1469.551,995.583 1468.686,1045.185 1511.135,1070.602 1554.449,1046.418 	"/>
	<polygon points="1643.314,996.816 1600.865,971.398 1557.551,995.583 1556.686,1045.185 1599.135,1070.602 1642.449,1046.418 	"/>
	<polygon points="1731.314,997.816 1688.865,972.398 1645.551,996.583 1644.686,1046.185 1687.135,1071.602 1730.449,1047.418 	"/>
	<polygon points="1424.551,1070.583 1423.686,1120.185 1466.135,1145.602 1509.449,1121.418 1510.314,1071.816 1467.865,1046.398 	
		"/>
	<polygon points="1512.551,1071.583 1511.686,1121.185 1554.135,1146.602 1597.449,1122.418 1598.314,1072.816 1555.865,1047.398 	
		"/>
	<polygon points="1600.551,1071.583 1599.686,1121.185 1642.135,1146.602 1685.449,1122.418 1686.314,1072.816 1643.865,1047.398 	
		"/>
	<polygon points="1688.551,1072.583 1687.686,1122.185 1730.135,1147.602 1773.449,1123.418 1774.314,1073.816 1731.865,1048.398 	
		"/>
	<polygon points="1824.449,591.418 1825.314,541.816 1782.865,516.398 1739.551,540.583 1738.686,590.185 1781.135,615.602 	"/>
	<polygon points="1912.449,592.418 1913.314,542.816 1870.865,517.398 1827.551,541.583 1826.686,591.185 1869.135,616.602 	"/>
	<polygon points="2000.449,592.418 2001.314,542.816 1958.865,517.398 1915.551,541.583 1914.686,591.185 1957.135,616.602 	"/>
	<polygon points="2088.449,593.418 2089.314,543.816 2046.865,518.398 2003.551,542.583 2002.686,592.185 2045.135,617.602 	"/>
	<polygon points="1867.449,667.418 1868.314,617.816 1825.865,592.398 1782.551,616.583 1781.686,666.185 1824.135,691.602 	"/>
	<polygon points="1955.449,668.418 1956.314,618.816 1913.865,593.398 1870.551,617.583 1869.686,667.185 1912.135,692.602 	"/>
	<polygon points="2043.449,668.418 2044.314,618.816 2001.865,593.398 1958.551,617.583 1957.686,667.185 2000.135,692.602 	"/>
	<polygon points="2131.449,669.418 2132.314,619.816 2089.865,594.398 2046.551,618.583 2045.686,668.185 2088.135,693.602 	"/>
	<polygon points="2176.449,593.418 2177.314,543.816 2134.865,518.398 2091.551,542.583 2090.686,592.185 2133.135,617.602 	"/>
	<polygon points="2264.449,594.418 2265.314,544.816 2222.865,519.398 2179.551,543.583 2178.686,593.185 2221.135,618.602 	"/>
	<polygon points="2352.449,594.418 2353.314,544.816 2310.865,519.398 2267.551,543.583 2266.686,593.185 2309.135,618.602 	"/>
	<polygon points="2441.314,545.816 2398.865,520.398 2355.551,544.583 2354.686,594.185 2397.135,619.602 2440.449,595.418 	"/>
	<polygon points="2219.449,669.418 2220.314,619.816 2177.865,594.398 2134.551,618.583 2133.686,668.185 2176.135,693.602 	"/>
	<polygon points="2307.449,670.418 2308.314,620.816 2265.865,595.398 2222.551,619.583 2221.686,669.185 2264.135,694.602 	"/>
	<polygon points="2396.314,620.816 2353.865,595.398 2310.551,619.583 2309.686,669.185 2352.135,694.602 2395.449,670.418 	"/>
	<polygon points="2398.551,620.583 2397.686,670.185 2440.135,695.602 2483.449,671.418 2484.314,621.816 2441.865,596.398 	"/>
	<polygon points="1822.449,743.418 1823.314,693.816 1780.865,668.398 1737.551,692.583 1736.686,742.185 1779.135,767.602 	"/>
	<polygon points="1910.449,744.418 1911.314,694.816 1868.865,669.398 1825.551,693.583 1824.686,743.185 1867.135,768.602 	"/>
	<polygon points="1998.449,744.418 1999.314,694.816 1956.865,669.398 1913.551,693.583 1912.686,743.185 1955.135,768.602 	"/>
	<polygon points="2086.449,745.418 2087.314,695.816 2044.865,670.398 2001.551,694.583 2000.686,744.185 2043.135,769.602 	"/>
	<polygon points="1865.449,819.418 1866.314,769.816 1823.865,744.398 1780.551,768.583 1779.686,818.185 1822.135,843.602 	"/>
	<polygon points="1953.449,820.418 1954.314,770.816 1911.865,745.398 1868.551,769.583 1867.686,819.185 1910.135,844.602 	"/>
	<polygon points="2041.449,820.418 2042.314,770.816 1999.865,745.398 1956.551,769.583 1955.686,819.185 1998.135,844.602 	"/>
	<polygon points="2129.449,821.418 2130.314,771.816 2087.865,746.398 2044.551,770.583 2043.686,820.185 2086.135,845.602 	"/>
	<polygon points="2174.449,745.418 2175.314,695.816 2132.865,670.398 2089.551,694.583 2088.686,744.185 2131.135,769.602 	"/>
	<polygon points="2262.449,746.418 2263.314,696.816 2220.865,671.398 2177.551,695.583 2176.686,745.185 2219.135,770.602 	"/>
	<polygon points="2350.449,746.418 2351.314,696.816 2308.865,671.398 2265.551,695.583 2264.686,745.185 2307.135,770.602 	"/>
	<polygon points="2439.314,697.816 2396.865,672.398 2353.551,696.583 2352.686,746.185 2395.135,771.602 2438.449,747.418 	"/>
	<polygon points="2217.449,821.418 2218.314,771.816 2175.865,746.398 2132.551,770.583 2131.686,820.185 2174.135,845.602 	"/>
	<polygon points="2305.449,822.418 2306.314,772.816 2263.865,747.398 2220.551,771.583 2219.686,821.185 2262.135,846.602 	"/>
	<polygon points="2393.449,822.418 2394.314,772.816 2351.865,747.398 2308.551,771.583 2307.686,821.185 2350.135,846.602 	"/>
	<polygon points="2396.551,772.583 2395.686,822.185 2438.135,847.602 2481.449,823.418 2482.314,773.816 2439.865,748.398 	"/>
	<polygon points="1820.449,895.418 1821.314,845.816 1778.865,820.398 1735.551,844.583 1734.686,894.185 1777.135,919.602 	"/>
	<polygon points="1908.449,896.418 1909.314,846.816 1866.865,821.398 1823.551,845.583 1822.686,895.185 1865.135,920.602 	"/>
	<polygon points="1996.449,896.418 1997.314,846.816 1954.865,821.398 1911.551,845.583 1910.686,895.185 1953.135,920.602 	"/>
	<polygon points="2084.449,897.418 2085.314,847.816 2042.865,822.398 1999.551,846.583 1998.686,896.185 2041.135,921.602 	"/>
	<polygon points="1863.449,971.418 1864.314,921.816 1821.865,896.398 1778.551,920.583 1777.686,970.185 1820.135,995.602 	"/>
	<polygon points="1951.449,972.418 1952.314,922.816 1909.865,897.398 1866.551,921.583 1865.686,971.185 1908.135,996.602 	"/>
	<polygon points="2039.449,972.418 2040.314,922.816 1997.865,897.398 1954.551,921.583 1953.686,971.185 1996.135,996.602 	"/>
	<polygon points="2127.449,973.418 2128.314,923.816 2085.865,898.398 2042.551,922.583 2041.686,972.185 2084.135,997.602 	"/>
	<polygon points="2172.449,897.418 2173.314,847.816 2130.865,822.398 2087.551,846.583 2086.686,896.185 2129.135,921.602 	"/>
	<polygon points="2260.449,898.418 2261.314,848.816 2218.865,823.398 2175.551,847.583 2174.686,897.185 2217.135,922.602 	"/>
	<polygon points="2348.449,898.418 2349.314,848.816 2306.865,823.398 2263.551,847.583 2262.686,897.185 2305.135,922.602 	"/>
	<polygon points="2436.449,899.418 2437.314,849.816 2394.865,824.398 2351.551,848.583 2350.686,898.185 2393.135,923.602 	"/>
	<polygon points="2215.449,973.418 2216.314,923.816 2173.865,898.398 2130.551,922.583 2129.686,972.185 2172.135,997.602 	"/>
	<polygon points="2303.449,974.418 2304.314,924.816 2261.865,899.398 2218.551,923.583 2217.686,973.185 2260.135,998.602 	"/>
	<polygon points="2391.449,974.418 2392.314,924.816 2349.865,899.398 2306.551,923.583 2305.686,973.185 2348.135,998.602 	"/>
	<polygon points="2394.551,924.583 2393.686,974.185 2436.135,999.602 2479.449,975.418 2480.314,925.816 2437.865,900.398 	"/>
	<polygon points="1819.314,997.816 1776.865,972.398 1733.551,996.583 1732.686,1046.185 1775.135,1071.602 1818.449,1047.418 	"/>
	<polygon points="1907.314,998.816 1864.865,973.398 1821.551,997.583 1820.686,1047.185 1863.135,1072.602 1906.449,1048.418 	"/>
	<polygon points="1995.314,998.816 1952.865,973.398 1909.551,997.583 1908.686,1047.185 1951.135,1072.602 1994.449,1048.418 	"/>
	<polygon points="2083.314,999.816 2040.865,974.398 1997.551,998.583 1996.686,1048.185 2039.135,1073.602 2082.449,1049.418 	"/>
	<polygon points="1776.551,1072.583 1775.686,1122.185 1818.135,1147.602 1861.449,1123.418 1862.314,1073.816 1819.865,1048.398 	
		"/>
	<polygon points="1864.551,1073.583 1863.686,1123.185 1906.135,1148.602 1949.449,1124.418 1950.314,1074.816 1907.865,1049.398 	
		"/>
	<polygon points="1952.551,1073.583 1951.686,1123.185 1994.135,1148.602 2037.449,1124.418 2038.314,1074.816 1995.865,1049.398 	
		"/>
	<polygon points="2040.551,1074.583 2039.686,1124.185 2082.135,1149.602 2125.449,1125.418 2126.314,1075.816 2083.865,1050.398 	
		"/>
	<polygon points="2171.314,999.816 2128.865,974.398 2085.551,998.583 2084.686,1048.185 2127.135,1073.602 2170.449,1049.418 	"/>
	<polygon points="2259.314,1000.816 2216.865,975.398 2173.551,999.583 2172.686,1049.185 2215.135,1074.602 2258.449,1050.418 	"/>
	<polygon points="2347.314,1000.816 2304.865,975.398 2261.551,999.583 2260.686,1049.185 2303.135,1074.602 2346.449,1050.418 	"/>
	<polygon points="2435.314,1001.816 2392.865,976.398 2349.551,1000.583 2348.686,1050.185 2391.135,1075.602 2434.449,1051.418 	
		"/>
	<polygon points="2128.551,1074.583 2127.686,1124.185 2170.135,1149.602 2213.449,1125.418 2214.314,1075.816 2171.865,1050.398 	
		"/>
	<polygon points="2216.551,1075.583 2215.686,1125.185 2258.135,1150.602 2301.449,1126.418 2302.314,1076.816 2259.865,1051.398 	
		"/>
	<polygon display="none" points="2304.551,1075.583 2303.686,1125.185 2346.135,1150.602 2389.449,1126.418 2390.314,1076.816 
		2347.865,1051.398 	"/>
	<polygon points="2392.551,1076.583 2391.686,1126.185 2434.135,1151.602 2477.449,1127.418 2478.314,1077.816 2435.865,1052.398 	
		"/>
</g>
</svg>
