<?xml version="1.0" encoding="utf-8"?>
<!-- Generator: Adobe Illustrator 16.0.0, SVG Export Plug-In . SVG Version: 6.00 Build 0)  -->
<!DOCTYPE svg PUBLIC "-//W3C//DTD SVG 1.1//EN" "http://www.w3.org/Graphics/SVG/1.1/DTD/svg11.dtd">
<svg version="1.1" xmlns="http://www.w3.org/2000/svg" xmlns:xlink="http://www.w3.org/1999/xlink" x="0px" y="0px" width="960px"
	 height="560px" viewBox="0 0 960 560" enable-background="new 0 0 960 560" xml:space="preserve">
<g id="Layer_2" display="none">
	<polyline display="inline" stroke="#000000" stroke-miterlimit="10" points="-10,572 934,-70 1024,11 973,622 0,597 	"/>
</g>
<g id="Layer_1">
	<path display="none" stroke="#000000" stroke-miterlimit="10" d="M52.144,533.502c0,0,111.315-172.897,347.643-180.012
		s506.835,32.532,571.376-71.638c64.542-104.17,82.502-230.263,82.502-230.263l-44.848,558.703L52.144,533.502z"/>
	<polygon stroke="#000000" stroke-miterlimit="10" points="141.401,486.994 112.589,502.354 84.882,485.082 85.987,452.45 
		114.798,437.091 142.505,454.363 	"/>
	<polygon stroke="#000000" stroke-miterlimit="10" points="199.455,488.645 170.644,504.004 142.937,486.731 144.041,454.1 
		172.853,438.741 200.56,456.014 	"/>
	<polygon stroke="#000000" stroke-miterlimit="10" points="319.657,390.949 290.845,406.308 263.139,389.036 264.244,356.405 
		293.055,341.046 320.762,358.317 	"/>
	<polygon stroke="#000000" stroke-miterlimit="10" points="377.711,392.6 348.899,407.958 321.193,390.687 322.298,358.056 
		351.109,342.695 378.816,359.968 	"/>
	<polygon stroke="#000000" stroke-miterlimit="10" points="408.785,342.927 379.974,358.286 352.267,341.014 353.372,308.382 
		382.183,293.022 409.891,310.295 	"/>
	<polygon stroke="#000000" stroke-miterlimit="10" points="466.84,344.577 438.027,359.937 410.321,342.664 411.426,310.032 
		440.237,294.673 467.944,311.945 	"/>
	<polygon stroke="#000000" stroke-miterlimit="10" points="497.913,294.904 469.103,310.264 441.396,292.991 442.5,260.359 
		471.311,245 499.018,262.272 	"/>
	<polygon stroke="#000000" stroke-miterlimit="10" points="555.968,296.554 527.156,311.913 499.449,294.641 500.554,262.01 
		529.365,246.65 557.072,263.923 	"/>
	<polygon stroke="#000000" stroke-miterlimit="10" points="587.041,246.881 558.229,262.24 530.523,244.969 531.628,212.337 
		560.439,196.978 588.146,214.25 	"/>
	<polygon stroke="#000000" stroke-miterlimit="10" points="645.096,248.531 616.284,263.891 588.577,246.618 589.682,213.987 
		618.493,198.628 646.201,215.9 	"/>
	<polygon stroke="#000000" stroke-miterlimit="10" points="676.17,198.858 647.357,214.218 619.651,196.945 620.756,164.314 
		649.567,148.955 677.274,166.227 	"/>
	<polygon stroke="#000000" stroke-miterlimit="10" points="734.225,200.509 705.412,215.868 677.705,198.596 678.811,165.965 
		707.621,150.605 735.328,167.877 	"/>
	<polygon stroke="#000000" stroke-miterlimit="10" points="823.352,152.486 794.541,167.846 766.834,150.573 767.938,117.941 
		796.75,102.583 824.457,119.854 	"/>
	<polygon stroke="#000000" stroke-miterlimit="10" points="854.426,102.813 825.614,118.173 797.908,100.9 799.012,68.269 
		827.823,52.909 855.531,70.182 	"/>
	<polygon stroke="#000000" stroke-miterlimit="10" points="912.48,104.464 883.668,119.822 855.961,102.551 857.066,69.919 
		885.878,54.56 913.585,71.832 	"/>
	<polygon stroke="#000000" stroke-miterlimit="10" points="943.555,54.79 914.742,70.15 887.035,52.877 888.141,20.246 
		916.951,4.887 944.658,22.159 	"/>
	<polygon stroke="#000000" stroke-miterlimit="10" points="1001.608,56.44 972.797,71.8 945.09,54.527 946.194,21.896 
		975.006,6.537 1002.713,23.81 	"/>
	<polygon stroke="#000000" stroke-miterlimit="10" points="765.298,150.836 736.486,166.195 708.779,148.923 709.885,116.291 
		738.695,100.933 766.402,118.204 	"/>
	<polygon stroke="#000000" stroke-miterlimit="10" points="288.583,440.623 259.771,455.981 232.064,438.709 233.169,406.078 
		261.98,390.719 289.688,407.991 	"/>
	<polygon stroke="#000000" stroke-miterlimit="10" points="230.529,438.973 201.717,454.331 174.011,437.059 175.115,404.427 
		203.927,389.068 231.634,406.341 	"/>
	<polygon stroke="#000000" stroke-miterlimit="10" points="110.327,536.667 81.515,552.027 53.808,534.755 54.913,502.123 
		83.725,486.764 111.431,504.035 	"/>
	<polygon stroke="#000000" stroke-miterlimit="10" points="169.378,538.397 140.566,553.757 112.859,536.485 113.964,503.854 
		142.775,488.494 170.482,505.766 	"/>
	<polygon stroke="#000000" stroke-miterlimit="10" points="227.432,540.048 198.621,555.407 170.914,538.136 172.018,505.504 
		200.829,490.144 228.537,507.416 	"/>
	<polygon stroke="#000000" stroke-miterlimit="10" points="347.634,442.353 318.822,457.712 291.116,440.439 292.221,407.809 
		321.032,392.449 348.739,409.721 	"/>
	<polygon stroke="#000000" stroke-miterlimit="10" points="405.688,444.003 376.876,459.361 349.17,442.09 350.274,409.459 
		379.086,394.1 406.793,411.371 	"/>
	<polygon stroke="#000000" stroke-miterlimit="10" points="436.762,394.33 407.951,409.688 380.244,392.416 381.348,359.785 
		410.16,344.426 437.867,361.698 	"/>
	<polygon stroke="#000000" stroke-miterlimit="10" points="494.816,395.98 466.004,411.34 438.297,394.066 439.402,361.436 
		468.214,346.076 495.921,363.349 	"/>
	<polygon stroke="#000000" stroke-miterlimit="10" points="525.891,346.308 497.078,361.667 469.372,344.395 470.477,311.763 
		499.287,296.403 526.994,313.676 	"/>
	<polygon stroke="#000000" stroke-miterlimit="10" points="583.944,347.957 555.133,363.317 527.426,346.045 528.53,313.413 
		557.342,298.054 585.049,315.326 	"/>
	<polygon stroke="#000000" stroke-miterlimit="10" points="615.018,298.284 586.207,313.644 558.5,296.371 559.605,263.74 
		588.416,248.381 616.123,265.653 	"/>
	<polygon stroke="#000000" stroke-miterlimit="10" points="673.072,299.935 644.261,315.294 616.554,298.021 617.658,265.391 
		646.471,250.031 674.178,267.304 	"/>
	<polygon stroke="#000000" stroke-miterlimit="10" points="704.146,250.262 675.334,265.621 647.629,248.349 648.733,215.717 
		677.544,200.358 705.251,217.63 	"/>
	<polygon stroke="#000000" stroke-miterlimit="10" points="762.201,251.912 733.389,267.271 705.682,249.999 706.787,217.367 
		735.599,202.009 763.306,219.28 	"/>
	<polygon stroke="#000000" stroke-miterlimit="10" points="851.329,203.89 822.518,219.248 794.811,201.977 795.915,169.345 
		824.727,153.986 852.434,171.258 	"/>
	<polygon stroke="#000000" stroke-miterlimit="10" points="882.402,154.217 853.591,169.576 825.884,152.304 826.988,119.672 
		855.801,104.313 883.508,121.585 	"/>
	<polygon stroke="#000000" stroke-miterlimit="10" points="940.457,155.867 911.646,171.227 883.938,153.954 885.043,121.322 
		913.855,105.963 941.563,123.235 	"/>
	<polygon stroke="#000000" stroke-miterlimit="10" points="971.531,106.194 942.719,121.553 915.012,104.281 916.117,71.649 
		944.929,56.29 972.636,73.563 	"/>
	<polygon stroke="#000000" stroke-miterlimit="10" points="1029.586,107.844 1000.773,123.203 973.066,105.931 974.172,73.3 
		1002.982,57.94 1030.689,75.213 	"/>
	<polygon stroke="#000000" stroke-miterlimit="10" points="793.274,202.239 764.463,217.599 736.757,200.326 737.86,167.694 
		766.672,152.335 794.379,169.607 	"/>
	<polygon stroke="#000000" stroke-miterlimit="10" points="316.56,492.025 287.748,507.385 260.042,490.112 261.146,457.48 
		289.958,442.122 317.665,459.395 	"/>
	<polygon stroke="#000000" stroke-miterlimit="10" points="258.506,490.375 229.694,505.734 201.987,488.462 203.092,455.83 
		231.903,440.472 259.61,457.744 	"/>
	<polygon stroke="#000000" stroke-miterlimit="10" points="138.304,588.071 109.492,603.431 81.785,586.158 82.89,553.526 
		111.702,538.167 139.408,555.439 	"/>
	<polygon stroke="#000000" stroke-miterlimit="10" points="197.354,589.801 168.543,605.161 140.836,587.889 141.941,555.257 
		170.752,539.897 198.459,557.169 	"/>
	<polygon stroke="#000000" stroke-miterlimit="10" points="255.409,591.451 226.597,606.811 198.89,589.539 199.995,556.907 
		228.806,541.548 256.513,558.819 	"/>
	<polygon stroke="#000000" stroke-miterlimit="10" points="375.611,493.756 346.799,509.115 319.093,491.843 320.197,459.211 
		349.009,443.853 376.715,461.125 	"/>
	<polygon stroke="#000000" stroke-miterlimit="10" points="433.665,495.405 404.854,510.766 377.146,493.493 378.251,460.861 
		407.063,445.503 434.77,462.774 	"/>
	<polygon stroke="#000000" stroke-miterlimit="10" points="464.738,445.733 435.927,461.092 408.221,443.819 409.325,411.189 
		438.137,395.829 465.844,413.102 	"/>
	<polygon stroke="#000000" stroke-miterlimit="10" points="522.793,447.384 493.981,462.742 466.274,445.47 467.379,412.839 
		496.191,397.479 523.898,414.752 	"/>
	<polygon stroke="#000000" stroke-miterlimit="10" points="553.867,397.711 525.055,413.07 497.35,395.797 498.453,363.166 
		527.265,347.807 554.972,365.079 	"/>
	<polygon stroke="#000000" stroke-miterlimit="10" points="611.922,399.36 583.109,414.721 555.402,397.448 556.508,364.816 
		585.318,349.457 613.025,366.729 	"/>
	<polygon stroke="#000000" stroke-miterlimit="10" points="642.995,349.688 614.184,365.047 586.477,347.775 587.582,315.143 
		616.393,299.784 644.1,317.057 	"/>
	<polygon stroke="#000000" stroke-miterlimit="10" points="701.049,351.338 672.238,366.697 644.531,349.425 645.635,316.794 
		674.447,301.435 702.154,318.706 	"/>
	<polygon stroke="#000000" stroke-miterlimit="10" points="732.123,301.665 703.312,317.024 675.605,299.752 676.709,267.121 
		705.521,251.762 733.229,269.034 	"/>
	<polygon stroke="#000000" stroke-miterlimit="10" points="790.178,303.315 761.366,318.675 733.658,301.402 734.764,268.771 
		763.575,253.412 791.282,270.684 	"/>
	<polygon stroke="#000000" stroke-miterlimit="10" points="879.306,255.293 850.494,270.652 822.787,253.38 823.892,220.748 
		852.703,205.389 880.41,222.661 	"/>
	<polygon stroke="#000000" stroke-miterlimit="10" points="910.379,205.62 881.568,220.979 853.861,203.707 854.965,171.075 
		883.777,155.716 911.484,172.988 	"/>
	<polygon stroke="#000000" stroke-miterlimit="10" points="968.434,207.271 939.622,222.629 911.915,205.356 913.02,172.726 
		941.832,157.366 969.538,174.639 	"/>
	<polygon stroke="#000000" stroke-miterlimit="10" points="999.508,157.598 970.696,172.956 942.988,155.685 944.094,123.053 
		972.905,107.693 1000.612,124.966 	"/>
	<polygon stroke="#000000" stroke-miterlimit="10" points="1057.562,159.248 1028.75,174.606 1001.043,157.334 1002.148,124.703 
		1030.96,109.344 1058.666,126.616 	"/>
	<polygon stroke="#000000" stroke-miterlimit="10" points="821.252,253.643 792.439,269.002 764.732,251.729 765.838,219.098 
		794.648,203.738 822.355,221.011 	"/>
	<polygon stroke="#000000" stroke-miterlimit="10" points="344.537,543.429 315.725,558.788 288.019,541.516 289.123,508.884 
		317.935,493.525 345.642,510.797 	"/>
	<polygon stroke="#000000" stroke-miterlimit="10" points="286.483,541.778 257.671,557.138 229.964,539.865 231.069,507.233 
		259.88,491.874 287.587,509.146 	"/>
	<polygon stroke="#000000" stroke-miterlimit="10" points="166.28,639.475 137.469,654.833 109.762,637.561 110.867,604.93 
		139.678,589.57 167.385,606.843 	"/>
	<polygon stroke="#000000" stroke-miterlimit="10" points="224.334,641.125 195.523,656.484 167.816,639.211 168.921,606.58 
		197.732,591.221 225.439,608.493 	"/>
	<polygon stroke="#000000" stroke-miterlimit="10" points="282.388,642.774 253.577,658.135 225.87,640.861 226.975,608.23 
		255.787,592.871 283.493,610.143 	"/>
	<polygon stroke="#000000" stroke-miterlimit="10" points="402.591,545.079 373.779,560.438 346.072,543.166 347.177,510.534 
		375.988,495.176 403.695,512.448 	"/>
	<polygon stroke="#000000" stroke-miterlimit="10" points="460.645,546.729 431.833,562.089 404.127,544.816 405.23,512.185 
		434.043,496.826 461.75,514.099 	"/>
	<polygon stroke="#000000" stroke-miterlimit="10" points="491.719,497.057 462.908,512.415 435.201,495.144 436.305,462.512 
		465.117,447.153 492.823,464.425 	"/>
	<polygon stroke="#000000" stroke-miterlimit="10" points="549.773,498.707 520.961,514.065 493.255,496.793 494.359,464.162 
		523.171,448.803 550.878,466.075 	"/>
	<polygon stroke="#000000" stroke-miterlimit="10" points="580.847,449.034 552.036,464.393 524.328,447.12 525.434,414.489 
		554.245,399.13 581.951,416.402 	"/>
	<polygon stroke="#000000" stroke-miterlimit="10" points="638.901,450.685 610.09,466.043 582.383,448.771 583.487,416.14 
		612.299,400.78 640.006,418.053 	"/>
	<polygon stroke="#000000" stroke-miterlimit="10" points="669.975,401.011 641.164,416.371 613.457,399.099 614.562,366.467 
		643.373,351.107 671.08,368.379 	"/>
	<polygon stroke="#000000" stroke-miterlimit="10" points="728.029,402.661 699.218,418.021 671.511,400.749 672.615,368.117 
		701.427,352.758 729.134,370.029 	"/>
	<polygon stroke="#000000" stroke-miterlimit="10" points="759.104,352.988 730.292,368.348 702.585,351.075 703.689,318.444 
		732.501,303.084 760.208,320.357 	"/>
	<polygon stroke="#000000" stroke-miterlimit="10" points="817.158,354.639 788.346,369.998 760.639,352.726 761.743,320.095 
		790.555,304.734 818.262,322.008 	"/>
	<polygon stroke="#000000" stroke-miterlimit="10" points="906.285,306.616 877.475,321.976 849.768,304.703 850.871,272.071 
		879.684,256.712 907.391,273.984 	"/>
	<polygon stroke="#000000" stroke-miterlimit="10" points="937.359,256.943 908.548,272.302 880.842,255.03 881.946,222.398 
		910.757,207.039 938.464,224.312 	"/>
	<polygon stroke="#000000" stroke-miterlimit="10" points="995.414,258.594 966.602,273.952 938.895,256.681 940,224.049 
		968.812,208.689 996.519,225.962 	"/>
	<polygon stroke="#000000" stroke-miterlimit="10" points="1026.488,208.92 997.676,224.28 969.97,207.008 971.074,174.376 
		999.885,159.017 1027.592,176.289 	"/>
	<polygon stroke="#000000" stroke-miterlimit="10" points="1084.542,210.57 1055.73,225.93 1028.023,208.658 1029.128,176.026 
		1057.939,160.667 1085.646,177.939 	"/>
	<polygon stroke="#000000" stroke-miterlimit="10" points="848.231,304.966 819.42,320.325 791.713,303.053 792.818,270.421 
		821.629,255.063 849.336,272.334 	"/>
	<polygon stroke="#000000" stroke-miterlimit="10" points="371.517,594.752 342.705,610.111 314.998,592.839 316.103,560.207 
		344.915,544.848 372.621,562.12 	"/>
	<polygon stroke="#000000" stroke-miterlimit="10" points="313.462,593.102 284.651,608.461 256.944,591.188 258.049,558.558 
		286.86,543.197 314.567,560.47 	"/>
	<polygon stroke="#000000" stroke-miterlimit="10" points="193.261,690.798 164.449,706.156 136.742,688.884 137.847,656.253 
		166.658,640.894 194.365,658.166 	"/>
	<polygon stroke="#000000" stroke-miterlimit="10" points="252.231,693.524 223.42,708.884 195.713,691.611 196.817,658.98 
		225.629,643.621 253.336,660.893 	"/>
	<polygon stroke="#000000" stroke-miterlimit="10" points="310.285,695.175 281.474,710.533 253.767,693.262 254.872,660.631 
		283.684,645.271 311.39,662.543 	"/>
	<polygon stroke="#000000" stroke-miterlimit="10" points="430.487,597.479 401.676,612.839 373.969,595.566 375.074,562.935 
		403.885,547.575 431.592,564.848 	"/>
	<polygon stroke="#000000" stroke-miterlimit="10" points="488.541,599.129 459.73,614.489 432.023,597.217 433.127,564.585 
		461.939,549.226 489.646,566.497 	"/>
	<polygon stroke="#000000" stroke-miterlimit="10" points="519.615,549.456 490.805,564.815 463.098,547.543 464.202,514.912 
		493.014,499.553 520.721,516.825 	"/>
	<polygon stroke="#000000" stroke-miterlimit="10" points="577.67,551.106 548.857,566.466 521.15,549.193 522.256,516.562 
		551.067,501.203 578.774,518.476 	"/>
	<polygon stroke="#000000" stroke-miterlimit="10" points="608.744,501.435 579.933,516.793 552.226,499.521 553.33,466.889 
		582.143,451.53 609.848,468.803 	"/>
	<polygon stroke="#000000" stroke-miterlimit="10" points="666.798,503.084 637.986,518.443 610.279,501.171 611.384,468.54 
		640.195,453.181 667.902,470.453 	"/>
	<polygon stroke="#000000" stroke-miterlimit="10" points="697.871,453.411 669.061,468.77 641.354,451.498 642.459,418.867 
		671.27,403.508 698.977,420.779 	"/>
	<polygon stroke="#000000" stroke-miterlimit="10" points="755.926,455.062 727.114,470.42 699.407,453.148 700.512,420.518 
		729.324,405.157 757.031,422.43 	"/>
	<polygon stroke="#000000" stroke-miterlimit="10" points="787,405.389 758.188,420.748 730.482,403.476 731.587,370.844 
		760.397,355.484 788.104,372.757 	"/>
	<polygon stroke="#000000" stroke-miterlimit="10" points="845.055,407.039 816.242,422.398 788.535,405.126 789.641,372.494 
		818.452,357.135 846.159,374.407 	"/>
	<polygon stroke="#000000" stroke-miterlimit="10" points="934.183,359.016 905.371,374.375 877.664,357.104 878.769,324.472 
		907.58,309.112 935.287,326.385 	"/>
	<polygon stroke="#000000" stroke-miterlimit="10" points="965.256,309.344 936.444,324.702 908.738,307.431 909.844,274.799 
		938.654,259.439 966.361,276.712 	"/>
	<polygon stroke="#000000" stroke-miterlimit="10" points="1023.311,310.993 994.499,326.353 966.792,309.08 967.896,276.449 
		996.709,261.09 1024.416,278.362 	"/>
	<polygon stroke="#000000" stroke-miterlimit="10" points="1054.385,261.32 1025.572,276.68 997.867,259.407 998.971,226.776 
		1027.782,211.417 1055.489,228.689 	"/>
	<polygon stroke="#000000" stroke-miterlimit="10" points="1112.439,262.971 1083.627,278.33 1055.92,261.058 1057.025,228.427 
		1085.836,213.067 1113.544,230.34 	"/>
	<polygon stroke="#000000" stroke-miterlimit="10" points="876.128,357.365 847.316,372.725 819.61,355.453 820.715,322.821 
		849.525,307.462 877.232,324.734 	"/>
	<polygon stroke="#000000" stroke-miterlimit="10" points="399.414,647.152 370.602,662.512 342.895,645.239 344,612.607 
		372.812,597.248 400.518,614.521 	"/>
	<polygon stroke="#000000" stroke-miterlimit="10" points="341.359,645.502 312.548,660.861 284.841,643.588 285.946,610.957 
		314.757,595.598 342.464,612.87 	"/>
	<polygon stroke="#000000" stroke-miterlimit="10" points="221.157,743.197 192.346,758.557 164.639,741.284 165.744,708.652 
		194.555,693.294 222.262,710.566 	"/>
	<polygon stroke="#000000" stroke-miterlimit="10" points="280.128,745.924 251.317,761.283 223.61,744.012 224.714,711.38 
		253.526,696.021 281.233,713.293 	"/>
	<polygon stroke="#000000" stroke-miterlimit="10" points="338.182,747.575 309.371,762.934 281.664,745.661 282.769,713.031 
		311.58,697.671 339.287,714.943 	"/>
	<polygon stroke="#000000" stroke-miterlimit="10" points="458.384,649.879 429.573,665.239 401.866,647.967 402.971,615.335 
		431.783,599.976 459.488,617.247 	"/>
	<polygon stroke="#000000" stroke-miterlimit="10" points="516.438,651.529 487.627,666.889 459.92,649.617 461.024,616.985 
		489.836,601.626 517.543,618.897 	"/>
	<polygon stroke="#000000" stroke-miterlimit="10" points="547.512,601.856 518.701,617.216 490.994,599.943 492.1,567.312 
		520.911,551.952 548.617,569.225 	"/>
	<polygon stroke="#000000" stroke-miterlimit="10" points="605.566,603.507 576.755,618.866 549.048,601.594 550.152,568.962 
		578.965,553.604 606.672,570.875 	"/>
	<polygon stroke="#000000" stroke-miterlimit="10" points="636.641,553.833 607.83,569.193 580.123,551.921 581.228,519.289 
		610.038,503.931 637.745,521.203 	"/>
	<polygon stroke="#000000" stroke-miterlimit="10" points="694.695,555.483 665.883,570.843 638.176,553.571 639.281,520.939 
		668.093,505.581 695.8,522.853 	"/>
	<polygon stroke="#000000" stroke-miterlimit="10" points="725.769,505.812 696.957,521.17 669.251,503.897 670.355,471.268 
		699.166,455.907 726.873,473.18 	"/>
	<polygon stroke="#000000" stroke-miterlimit="10" points="783.823,507.462 755.012,522.82 727.305,505.548 728.409,472.917 
		757.221,457.558 784.928,474.83 	"/>
	<polygon stroke="#000000" stroke-miterlimit="10" points="814.896,457.789 786.085,473.148 758.379,455.875 759.483,423.244 
		788.295,407.885 816.002,425.157 	"/>
	<polygon stroke="#000000" stroke-miterlimit="10" points="872.951,459.438 844.14,474.799 816.433,457.526 817.537,424.895 
		846.35,409.535 874.057,426.808 	"/>
	<polygon stroke="#000000" stroke-miterlimit="10" points="962.08,411.416 933.268,426.775 905.561,409.503 906.666,376.872 
		935.477,361.512 963.184,378.784 	"/>
	<polygon stroke="#000000" stroke-miterlimit="10" points="993.153,361.743 964.342,377.103 936.635,359.83 937.739,327.198 
		966.551,311.84 994.258,329.112 	"/>
	<polygon stroke="#000000" stroke-miterlimit="10" points="1051.207,363.394 1022.396,378.753 994.689,361.48 995.793,328.849 
		1024.605,313.49 1052.313,330.762 	"/>
	<polygon stroke="#000000" stroke-miterlimit="10" points="1082.281,313.721 1053.47,329.08 1025.763,311.808 1026.867,279.176 
		1055.68,263.816 1083.387,281.089 	"/>
	<polygon stroke="#000000" stroke-miterlimit="10" points="1140.336,315.371 1111.524,330.73 1083.816,313.458 1084.922,280.826 
		1113.733,265.467 1141.44,282.739 	"/>
	<polygon stroke="#000000" stroke-miterlimit="10" points="904.025,409.766 875.213,425.125 847.508,407.854 848.611,375.222 
		877.423,359.862 905.13,377.134 	"/>
	<polygon stroke="#000000" stroke-miterlimit="10" points="427.311,699.553 398.499,714.911 370.792,697.639 371.896,665.008 
		400.708,649.648 428.415,666.921 	"/>
	<polygon stroke="#000000" stroke-miterlimit="10" points="369.256,697.902 340.444,713.261 312.738,695.988 313.843,663.357 
		342.654,647.998 370.361,665.271 	"/>
	<polygon stroke="#000000" stroke-miterlimit="10" points="249.054,795.597 220.243,810.957 192.536,793.685 193.64,761.053 
		222.452,745.694 250.159,762.967 	"/>
	<polygon stroke="#000000" stroke-miterlimit="10" points="308.105,797.327 279.293,812.688 251.587,795.415 252.691,762.783 
		281.503,747.425 309.21,764.696 	"/>
	<polygon stroke="#000000" stroke-miterlimit="10" points="366.159,798.978 337.348,814.337 309.641,797.065 310.746,764.434 
		339.557,749.075 367.264,766.347 	"/>
	<polygon stroke="#000000" stroke-miterlimit="10" points="486.361,701.282 457.551,716.642 429.844,699.369 430.947,666.738 
		459.76,651.379 487.466,668.651 	"/>
	<polygon stroke="#000000" stroke-miterlimit="10" points="544.416,702.933 515.604,718.291 487.896,701.02 489.002,668.389 
		517.813,653.029 545.52,670.301 	"/>
	<polygon stroke="#000000" stroke-miterlimit="10" points="575.489,653.26 546.678,668.619 518.971,651.347 520.076,618.716 
		548.887,603.355 576.594,620.628 	"/>
	<polygon stroke="#000000" stroke-miterlimit="10" points="633.543,654.91 604.732,670.27 577.025,652.997 578.129,620.365 
		606.941,605.006 634.648,622.278 	"/>
	<polygon stroke="#000000" stroke-miterlimit="10" points="664.617,605.237 635.806,620.597 608.1,603.324 609.204,570.692 
		638.016,555.334 665.723,572.605 	"/>
	<polygon stroke="#000000" stroke-miterlimit="10" points="722.672,606.887 693.859,622.247 666.152,604.975 667.258,572.343 
		696.069,556.984 723.776,574.257 	"/>
	<polygon stroke="#000000" stroke-miterlimit="10" points="753.746,557.214 724.934,572.573 697.228,555.302 698.332,522.67 
		727.143,507.312 754.85,524.583 	"/>
	<polygon stroke="#000000" stroke-miterlimit="10" points="811.8,558.865 782.988,574.224 755.281,556.951 756.386,524.32 
		785.197,508.961 812.904,526.233 	"/>
	<polygon stroke="#000000" stroke-miterlimit="10" points="842.873,509.192 814.063,524.551 786.355,507.278 787.461,474.647 
		816.271,459.288 843.979,476.561 	"/>
	<polygon stroke="#000000" stroke-miterlimit="10" points="900.928,510.843 872.116,526.201 844.409,508.929 845.514,476.298 
		874.326,460.938 902.033,478.211 	"/>
	<polygon stroke="#000000" stroke-miterlimit="10" points="990.057,462.819 961.244,478.179 933.537,460.907 934.643,428.275 
		963.454,412.915 991.161,430.188 	"/>
	<polygon stroke="#000000" stroke-miterlimit="10" points="1021.13,413.146 992.318,428.506 964.611,411.233 965.716,378.602 
		994.527,363.242 1022.234,380.515 	"/>
	<polygon stroke="#000000" stroke-miterlimit="10" points="1079.185,414.797 1050.373,430.156 1022.666,412.884 1023.771,380.252 
		1052.582,364.893 1080.289,382.166 	"/>
	<polygon stroke="#000000" stroke-miterlimit="10" points="1110.258,365.123 1081.446,380.483 1053.739,363.211 1054.844,330.579 
		1083.656,315.221 1111.363,332.492 	"/>
	<polygon stroke="#000000" stroke-miterlimit="10" points="1168.313,366.773 1139.501,382.133 1111.794,364.861 1112.898,332.229 
		1141.71,316.87 1169.416,334.143 	"/>
	<polygon stroke="#000000" stroke-miterlimit="10" points="932.002,461.169 903.189,476.528 875.484,459.257 876.588,426.625 
		905.399,411.266 933.106,428.537 	"/>
	<polygon stroke="#000000" stroke-miterlimit="10" points="455.287,750.956 426.476,766.314 398.769,749.042 399.873,716.41 
		428.686,701.052 456.393,718.324 	"/>
	<polygon stroke="#000000" stroke-miterlimit="10" points="397.233,749.305 368.421,764.664 340.715,747.392 341.819,714.76 
		370.631,699.401 398.338,716.674 	"/>
	<polygon stroke="#000000" stroke-miterlimit="10" points="277.031,847.001 248.22,862.36 220.513,845.088 221.617,812.456 
		250.429,797.097 278.136,814.369 	"/>
	<polygon stroke="#000000" stroke-miterlimit="10" points="335.005,849.647 306.193,865.007 278.486,847.735 279.591,815.104 
		308.403,799.744 336.109,817.016 	"/>
	<polygon stroke="#000000" stroke-miterlimit="10" points="393.06,851.298 364.248,866.657 336.541,849.385 337.645,816.754 
		366.457,801.395 394.164,818.667 	"/>
	<polygon stroke="#000000" stroke-miterlimit="10" points="513.262,753.603 484.449,768.961 456.742,751.689 457.848,719.059 
		486.659,703.699 514.366,720.971 	"/>
	<polygon stroke="#000000" stroke-miterlimit="10" points="571.315,755.253 542.504,770.611 514.797,753.34 515.902,720.709 
		544.713,705.35 572.42,722.621 	"/>
	<polygon stroke="#000000" stroke-miterlimit="10" points="602.39,705.58 573.578,720.939 545.871,703.666 546.976,671.035 
		575.787,655.676 603.494,672.948 	"/>
	<polygon stroke="#000000" stroke-miterlimit="10" points="660.443,707.23 631.632,722.59 603.926,705.317 605.03,672.686 
		633.841,657.326 661.548,674.599 	"/>
	<polygon stroke="#000000" stroke-miterlimit="10" points="691.518,657.557 662.706,672.917 634.999,655.645 636.104,623.013 
		664.916,607.653 692.622,624.926 	"/>
	<polygon stroke="#000000" stroke-miterlimit="10" points="749.572,659.207 720.76,674.566 693.054,657.295 694.157,624.663 
		722.969,609.304 750.676,626.576 	"/>
	<polygon stroke="#000000" stroke-miterlimit="10" points="780.646,609.534 751.834,624.894 724.127,607.621 725.232,574.99 
		754.044,559.631 781.75,576.903 	"/>
	<polygon stroke="#000000" stroke-miterlimit="10" points="838.699,611.185 809.889,626.544 782.181,609.271 783.285,576.64 
		812.098,561.281 839.805,578.554 	"/>
	<polygon stroke="#000000" stroke-miterlimit="10" points="869.773,561.513 840.963,576.871 813.256,559.599 814.36,526.967 
		843.172,511.608 870.878,528.881 	"/>
	<polygon stroke="#000000" stroke-miterlimit="10" points="927.828,563.162 899.016,578.521 871.309,561.249 872.414,528.618 
		901.226,513.259 928.933,530.531 	"/>
	<polygon stroke="#000000" stroke-miterlimit="10" points="1016.956,515.14 988.145,530.498 960.438,513.227 961.542,480.595 
		990.354,465.235 1018.061,482.508 	"/>
	<polygon stroke="#000000" stroke-miterlimit="10" points="1048.029,465.467 1019.219,480.826 991.512,463.554 992.617,430.922 
		1021.428,415.563 1049.135,432.835 	"/>
	<polygon stroke="#000000" stroke-miterlimit="10" points="1106.084,467.117 1077.272,482.477 1049.565,465.204 1050.67,432.572 
		1079.482,417.213 1107.189,434.485 	"/>
	<polygon stroke="#000000" stroke-miterlimit="10" points="1137.158,417.443 1108.347,432.803 1080.641,415.531 1081.745,382.899 
		1110.556,367.541 1138.263,384.813 	"/>
	<polygon stroke="#000000" stroke-miterlimit="10" points="1195.213,419.094 1166.4,434.453 1138.693,417.182 1139.799,384.55 
		1168.61,369.19 1196.317,386.463 	"/>
	<polygon stroke="#000000" stroke-miterlimit="10" points="958.902,513.489 930.091,528.848 902.384,511.576 903.488,478.945 
		932.299,463.585 960.006,480.857 	"/>
	<polygon stroke="#000000" stroke-miterlimit="10" points="482.188,803.275 453.375,818.635 425.669,801.362 426.773,768.73 
		455.584,753.372 483.292,770.645 	"/>
	<polygon stroke="#000000" stroke-miterlimit="10" points="424.133,801.625 395.322,816.984 367.615,799.712 368.719,767.08 
		397.531,751.722 425.238,768.994 	"/>
	<polygon stroke="#000000" stroke-miterlimit="10" points="303.931,899.32 275.119,914.681 247.413,897.408 248.517,864.776 
		277.329,849.417 305.036,866.689 	"/>
	<polygon stroke="#000000" stroke-miterlimit="10" points="362.902,902.048 334.09,917.407 306.383,900.135 307.488,867.504 
		336.3,852.144 364.006,869.416 	"/>
	<polygon stroke="#000000" stroke-miterlimit="10" points="420.955,903.698 392.144,919.058 364.438,901.785 365.542,869.153 
		394.354,853.794 422.061,871.066 	"/>
	<polygon stroke="#000000" stroke-miterlimit="10" points="541.158,806.002 512.347,821.361 484.64,804.09 485.744,771.458 
		514.557,756.1 542.262,773.371 	"/>
	<polygon stroke="#000000" stroke-miterlimit="10" points="599.212,807.653 570.4,823.012 542.694,805.739 543.799,773.109 
		572.609,757.749 600.316,775.021 	"/>
	<polygon stroke="#000000" stroke-miterlimit="10" points="630.285,757.98 601.475,773.339 573.768,756.066 574.873,723.436 
		603.685,708.076 631.391,725.349 	"/>
	<polygon stroke="#000000" stroke-miterlimit="10" points="688.34,759.631 659.528,774.989 631.822,757.717 632.926,725.086 
		661.738,709.727 689.445,726.999 	"/>
	<polygon stroke="#000000" stroke-miterlimit="10" points="719.414,709.957 690.604,725.316 662.896,708.045 664.001,675.413 
		692.813,660.054 720.519,677.325 	"/>
	<polygon stroke="#000000" stroke-miterlimit="10" points="777.469,711.607 748.656,726.967 720.949,709.695 722.055,677.063 
		750.866,661.703 778.573,678.976 	"/>
	<polygon stroke="#000000" stroke-miterlimit="10" points="808.542,661.935 779.731,677.294 752.024,660.021 753.129,627.39 
		781.941,612.03 809.646,629.303 	"/>
	<polygon stroke="#000000" stroke-miterlimit="10" points="866.597,663.585 837.785,678.944 810.078,661.672 811.183,629.04 
		839.994,613.682 867.701,630.953 	"/>
	<polygon stroke="#000000" stroke-miterlimit="10" points="897.67,613.911 868.859,629.271 841.152,611.999 842.258,579.367 
		871.068,564.009 898.775,581.281 	"/>
	<polygon stroke="#000000" stroke-miterlimit="10" points="955.725,615.562 926.913,630.921 899.206,613.649 900.311,581.018 
		929.123,565.659 956.83,582.931 	"/>
	<polygon stroke="#000000" stroke-miterlimit="10" points="1044.854,567.54 1016.041,582.898 988.334,565.626 989.439,532.995 
		1018.25,517.636 1045.957,534.908 	"/>
	<polygon stroke="#000000" stroke-miterlimit="10" points="1075.927,517.867 1047.115,533.227 1019.408,515.953 1020.514,483.322 
		1049.324,467.963 1077.031,485.235 	"/>
	<polygon stroke="#000000" stroke-miterlimit="10" points="1133.981,519.517 1105.17,534.877 1077.463,517.604 1078.566,484.973 
		1107.379,469.613 1135.086,486.886 	"/>
	<polygon stroke="#000000" stroke-miterlimit="10" points="1165.055,469.844 1136.243,485.203 1108.537,467.932 1109.642,435.3 
		1138.452,419.939 1166.159,437.212 	"/>
	<polygon stroke="#000000" stroke-miterlimit="10" points="1223.109,471.494 1194.298,486.854 1166.591,469.581 1167.695,436.949 
		1196.507,421.59 1224.214,438.862 	"/>
	<polygon stroke="#000000" stroke-miterlimit="10" points="986.799,565.89 957.986,581.248 930.281,563.976 931.385,531.345 
		960.196,515.985 987.903,533.258 	"/>
	<polygon stroke="#000000" stroke-miterlimit="10" points="510.084,855.675 481.271,871.035 453.566,853.763 454.671,821.131 
		483.481,805.772 511.188,823.045 	"/>
	<polygon stroke="#000000" stroke-miterlimit="10" points="452.03,854.025 423.219,869.385 395.512,852.112 396.616,819.48 
		425.428,804.121 453.135,821.395 	"/>
	<polygon stroke="#000000" stroke-miterlimit="10" points="331.828,951.721 303.016,967.08 275.309,949.809 276.414,917.177 
		305.226,901.817 332.932,919.089 	"/>
	<polygon stroke="#000000" stroke-miterlimit="10" points="390.879,953.451 362.067,968.811 334.36,951.539 335.465,918.907 
		364.276,903.548 391.984,920.819 	"/>
	<polygon stroke="#000000" stroke-miterlimit="10" points="448.933,955.102 420.121,970.461 392.415,953.188 393.52,920.558 
		422.33,905.197 450.037,922.47 	"/>
	<polygon stroke="#000000" stroke-miterlimit="10" points="569.135,857.405 540.324,872.765 512.617,855.493 513.721,822.861 
		542.533,807.503 570.239,824.774 	"/>
	<polygon stroke="#000000" stroke-miterlimit="10" points="627.189,859.056 598.377,874.415 570.671,857.144 571.775,824.512 
		600.586,809.152 628.293,826.425 	"/>
	<polygon stroke="#000000" stroke-miterlimit="10" points="658.263,809.384 629.451,824.742 601.744,807.47 602.85,774.838 
		631.661,759.479 659.367,776.752 	"/>
	<polygon stroke="#000000" stroke-miterlimit="10" points="716.317,811.034 687.506,826.393 659.799,809.12 660.902,776.489 
		689.715,761.13 717.422,778.402 	"/>
	<polygon stroke="#000000" stroke-miterlimit="10" points="747.391,761.36 718.58,776.72 690.873,759.447 691.978,726.816 
		720.789,711.457 748.496,728.729 	"/>
	<polygon stroke="#000000" stroke-miterlimit="10" points="805.445,763.011 776.634,778.369 748.927,761.098 750.031,728.467 
		778.843,713.107 806.55,730.379 	"/>
	<polygon stroke="#000000" stroke-miterlimit="10" points="836.52,713.338 807.708,728.697 780.001,711.425 781.105,678.793 
		809.916,663.434 837.623,680.706 	"/>
	<polygon stroke="#000000" stroke-miterlimit="10" points="894.573,714.988 865.762,730.348 838.055,713.075 839.159,680.443 
		867.971,665.084 895.678,682.356 	"/>
	<polygon stroke="#000000" stroke-miterlimit="10" points="925.647,665.315 896.836,680.675 869.129,663.402 870.234,630.771 
		899.045,615.412 926.752,632.684 	"/>
	<polygon stroke="#000000" stroke-miterlimit="10" points="983.701,666.965 954.891,682.325 927.183,665.053 928.287,632.421 
		957.1,617.063 984.807,634.335 	"/>
	<polygon stroke="#000000" stroke-miterlimit="10" points="1072.83,618.943 1044.018,634.302 1016.311,617.029 1017.416,584.397 
		1046.228,569.039 1073.935,586.312 	"/>
	<polygon stroke="#000000" stroke-miterlimit="10" points="1103.903,569.271 1075.092,584.629 1047.386,567.356 1048.49,534.726 
		1077.301,519.366 1105.008,536.639 	"/>
	<polygon stroke="#000000" stroke-miterlimit="10" points="1161.958,570.921 1133.146,586.279 1105.439,569.007 1106.544,536.376 
		1135.355,521.017 1163.063,538.289 	"/>
	<polygon stroke="#000000" stroke-miterlimit="10" points="1193.032,521.247 1164.22,536.606 1136.514,519.335 1137.617,486.703 
		1166.43,471.344 1194.137,488.615 	"/>
	<polygon stroke="#000000" stroke-miterlimit="10" points="1251.086,522.897 1222.274,538.257 1194.567,520.985 1195.672,488.354 
		1224.484,472.993 1252.191,490.266 	"/>
	<polygon stroke="#000000" stroke-miterlimit="10" points="1014.775,617.292 985.964,632.651 958.258,615.38 959.362,582.748 
		988.173,567.389 1015.88,584.661 	"/>
	<polygon stroke="#000000" stroke-miterlimit="10" points="538.061,907.079 509.249,922.438 481.543,905.166 482.647,872.534 
		511.459,857.175 539.166,874.447 	"/>
	<polygon stroke="#000000" stroke-miterlimit="10" points="480.008,905.429 451.195,920.788 423.488,903.516 424.594,870.884 
		453.404,855.524 481.111,872.797 	"/>
	<polygon stroke="#000000" stroke-miterlimit="10" points="359.804,1003.124 330.993,1018.483 303.286,1001.211 304.391,968.58 
		333.203,953.221 360.909,970.493 	"/>
	<path display="none" stroke="#000000" stroke-miterlimit="10" d="M-897.856,1012.502c0,0,111.315-172.897,347.643-180.012
		s506.835,32.532,571.376-71.638c64.542-104.17,82.502-230.263,82.502-230.263l-44.848,558.703L-897.856,1012.502z"/>
	<polygon stroke="#000000" stroke-miterlimit="10" points="-808.599,965.994 -837.411,981.354 -865.118,964.082 -864.013,931.45 
		-835.202,916.091 -807.495,933.363 	"/>
	<polygon stroke="#000000" stroke-miterlimit="10" points="-750.545,967.645 -779.356,983.004 -807.063,965.731 -805.959,933.1 
		-777.147,917.741 -749.44,935.014 	"/>
	<polygon stroke="#000000" stroke-miterlimit="10" points="-630.343,869.949 -659.155,885.308 -686.861,868.036 -685.756,835.405 
		-656.945,820.046 -629.238,837.317 	"/>
	<polygon stroke="#000000" stroke-miterlimit="10" points="-572.289,871.6 -601.101,886.958 -628.807,869.687 -627.702,837.056 
		-598.891,821.695 -571.184,838.968 	"/>
	<polygon stroke="#000000" stroke-miterlimit="10" points="-541.215,821.927 -570.026,837.286 -597.733,820.014 -596.628,787.382 
		-567.817,772.022 -540.109,789.295 	"/>
	<polygon stroke="#000000" stroke-miterlimit="10" points="-483.16,823.577 -511.973,838.937 -539.679,821.664 -538.574,789.032 
		-509.763,773.673 -482.056,790.945 	"/>
	<polygon stroke="#000000" stroke-miterlimit="10" points="-452.087,773.904 -480.897,789.264 -508.604,771.991 -507.5,739.359 
		-478.689,724 -450.982,741.272 	"/>
	<polygon stroke="#000000" stroke-miterlimit="10" points="-394.032,775.554 -422.844,790.913 -450.551,773.641 -449.446,741.01 
		-420.635,725.65 -392.928,742.923 	"/>
	<polygon stroke="#000000" stroke-miterlimit="10" points="-362.959,725.881 -391.771,741.24 -419.477,723.969 -418.372,691.337 
		-389.561,675.978 -361.854,693.25 	"/>
	<polygon stroke="#000000" stroke-miterlimit="10" points="-304.904,727.531 -333.716,742.891 -361.423,725.618 -360.318,692.987 
		-331.507,677.628 -303.799,694.9 	"/>
	<polygon stroke="#000000" stroke-miterlimit="10" points="-273.83,677.858 -302.643,693.218 -330.349,675.945 -329.244,643.314 
		-300.433,627.955 -272.726,645.227 	"/>
	<polygon stroke="#000000" stroke-miterlimit="10" points="-215.775,679.509 -244.588,694.868 -272.295,677.596 -271.189,644.965 
		-242.379,629.605 -214.672,646.877 	"/>
	<polygon stroke="#000000" stroke-miterlimit="10" points="-126.648,631.486 -155.459,646.846 -183.166,629.573 -182.063,596.941 
		-153.25,581.583 -125.543,598.854 	"/>
	<polygon stroke="#000000" stroke-miterlimit="10" points="-95.574,581.813 -124.386,597.173 -152.092,579.9 -150.988,547.269 
		-122.177,531.909 -94.469,549.182 	"/>
	<polygon stroke="#000000" stroke-miterlimit="10" points="-37.52,583.464 -66.332,598.822 -94.039,581.551 -92.934,548.919 
		-64.122,533.56 -36.415,550.832 	"/>
	<polygon stroke="#000000" stroke-miterlimit="10" points="-6.445,533.79 -35.258,549.15 -62.965,531.877 -61.859,499.246 
		-33.049,483.887 -5.342,501.159 	"/>
	<polygon stroke="#000000" stroke-miterlimit="10" points="51.608,535.44 22.797,550.8 -4.91,533.527 -3.806,500.896 
		25.006,485.537 52.713,502.81 	"/>
	<polygon stroke="#000000" stroke-miterlimit="10" points="-184.702,629.836 -213.514,645.195 -241.221,627.923 -240.115,595.291 
		-211.305,579.933 -183.598,597.204 	"/>
	<polygon stroke="#000000" stroke-miterlimit="10" points="-661.417,919.623 -690.229,934.981 -717.936,917.709 -716.831,885.078 
		-688.02,869.719 -660.313,886.991 	"/>
	<polygon stroke="#000000" stroke-miterlimit="10" points="-719.471,917.973 -748.283,933.331 -775.989,916.059 -774.885,883.427 
		-746.073,868.068 -718.366,885.341 	"/>
	<polygon stroke="#000000" stroke-miterlimit="10" points="-839.673,1015.667 -868.485,1031.027 -896.192,1013.755 
		-895.087,981.123 -866.275,965.764 -838.569,983.035 	"/>
	<polygon stroke="#000000" stroke-miterlimit="10" points="-780.622,1017.397 -809.434,1032.757 -837.141,1015.485 
		-836.036,982.854 -807.225,967.494 -779.518,984.766 	"/>
	<polygon stroke="#000000" stroke-miterlimit="10" points="-722.568,1019.048 -751.379,1034.407 -779.086,1017.136 
		-777.982,984.504 -749.171,969.144 -721.463,986.416 	"/>
	<polygon stroke="#000000" stroke-miterlimit="10" points="-602.366,921.353 -631.178,936.712 -658.884,919.439 -657.779,886.809 
		-628.968,871.449 -601.261,888.721 	"/>
	<polygon stroke="#000000" stroke-miterlimit="10" points="-544.313,923.003 -573.124,938.361 -600.83,921.09 -599.726,888.459 
		-570.914,873.1 -543.207,890.371 	"/>
	<polygon stroke="#000000" stroke-miterlimit="10" points="-513.238,873.33 -542.049,888.688 -569.756,871.416 -568.652,838.785 
		-539.84,823.426 -512.133,840.698 	"/>
	<polygon stroke="#000000" stroke-miterlimit="10" points="-455.184,874.98 -483.996,890.34 -511.703,873.066 -510.598,840.436 
		-481.786,825.076 -454.079,842.349 	"/>
	<polygon stroke="#000000" stroke-miterlimit="10" points="-424.109,825.308 -452.922,840.667 -480.628,823.395 -479.523,790.763 
		-450.713,775.403 -423.006,792.676 	"/>
	<polygon stroke="#000000" stroke-miterlimit="10" points="-366.056,826.957 -394.867,842.317 -422.574,825.045 -421.47,792.413 
		-392.658,777.054 -364.951,794.326 	"/>
	<polygon stroke="#000000" stroke-miterlimit="10" points="-334.982,777.284 -363.793,792.644 -391.5,775.371 -390.395,742.74 
		-361.584,727.381 -333.877,744.653 	"/>
	<polygon stroke="#000000" stroke-miterlimit="10" points="-276.928,778.935 -305.739,794.294 -333.446,777.021 -332.342,744.391 
		-303.529,729.031 -275.822,746.304 	"/>
	<polygon stroke="#000000" stroke-miterlimit="10" points="-245.854,729.262 -274.666,744.621 -302.371,727.349 -301.267,694.717 
		-272.456,679.358 -244.749,696.63 	"/>
	<polygon stroke="#000000" stroke-miterlimit="10" points="-187.799,730.912 -216.611,746.271 -244.318,728.999 -243.213,696.367 
		-214.401,681.009 -186.694,698.28 	"/>
	<polygon stroke="#000000" stroke-miterlimit="10" points="-98.671,682.89 -127.482,698.248 -155.189,680.977 -154.085,648.345 
		-125.273,632.986 -97.566,650.258 	"/>
	<polygon stroke="#000000" stroke-miterlimit="10" points="-67.598,633.217 -96.409,648.576 -124.116,631.304 -123.012,598.672 
		-94.199,583.313 -66.492,600.585 	"/>
	<polygon stroke="#000000" stroke-miterlimit="10" points="-9.543,634.867 -38.354,650.227 -66.062,632.954 -64.957,600.322 
		-36.145,584.963 -8.438,602.235 	"/>
	<polygon stroke="#000000" stroke-miterlimit="10" points="21.531,585.194 -7.281,600.553 -34.988,583.281 -33.883,550.649 
		-5.071,535.29 22.636,552.563 	"/>
	<polygon stroke="#000000" stroke-miterlimit="10" points="79.586,586.844 50.773,602.203 23.066,584.931 24.172,552.3 
		52.982,536.94 80.689,554.213 	"/>
	<polygon stroke="#000000" stroke-miterlimit="10" points="-156.726,681.239 -185.537,696.599 -213.243,679.326 -212.14,646.694 
		-183.328,631.335 -155.621,648.607 	"/>
	<polygon stroke="#000000" stroke-miterlimit="10" points="-633.44,971.025 -662.252,986.385 -689.958,969.112 -688.854,936.48 
		-660.042,921.122 -632.335,938.395 	"/>
	<polygon stroke="#000000" stroke-miterlimit="10" points="-691.494,969.375 -720.306,984.734 -748.013,967.462 -746.908,934.83 
		-718.097,919.472 -690.39,936.744 	"/>
	<polygon stroke="#000000" stroke-miterlimit="10" points="-811.696,1067.071 -840.508,1082.431 -868.215,1065.158 
		-867.11,1032.526 -838.298,1017.167 -810.592,1034.439 	"/>
	<polygon stroke="#000000" stroke-miterlimit="10" points="-752.646,1068.801 -781.457,1084.161 -809.164,1066.889 
		-808.059,1034.257 -779.248,1018.897 -751.541,1036.169 	"/>
	<polygon stroke="#000000" stroke-miterlimit="10" points="-694.591,1070.451 -723.403,1085.811 -751.11,1068.539 
		-750.005,1035.907 -721.194,1020.548 -693.487,1037.819 	"/>
	<polygon stroke="#000000" stroke-miterlimit="10" points="-574.389,972.756 -603.201,988.115 -630.907,970.843 -629.803,938.211 
		-600.991,922.853 -573.285,940.125 	"/>
	<polygon stroke="#000000" stroke-miterlimit="10" points="-516.335,974.405 -545.146,989.766 -572.854,972.493 -571.749,939.861 
		-542.938,924.503 -515.23,941.774 	"/>
	<polygon stroke="#000000" stroke-miterlimit="10" points="-485.262,924.733 -514.073,940.092 -541.779,922.819 -540.675,890.189 
		-511.863,874.829 -484.156,892.102 	"/>
	<polygon stroke="#000000" stroke-miterlimit="10" points="-427.207,926.384 -456.019,941.742 -483.726,924.47 -482.621,891.839 
		-453.809,876.479 -426.102,893.752 	"/>
	<polygon stroke="#000000" stroke-miterlimit="10" points="-396.133,876.711 -424.945,892.07 -452.65,874.797 -451.547,842.166 
		-422.735,826.807 -395.028,844.079 	"/>
	<polygon stroke="#000000" stroke-miterlimit="10" points="-338.078,878.36 -366.891,893.721 -394.598,876.448 -393.492,843.816 
		-364.682,828.457 -336.975,845.729 	"/>
	<polygon stroke="#000000" stroke-miterlimit="10" points="-307.005,828.688 -335.816,844.047 -363.523,826.775 -362.418,794.143 
		-333.607,778.784 -305.9,796.057 	"/>
	<polygon stroke="#000000" stroke-miterlimit="10" points="-248.951,830.338 -277.762,845.697 -305.469,828.425 -304.365,795.794 
		-275.553,780.435 -247.846,797.706 	"/>
	<polygon stroke="#000000" stroke-miterlimit="10" points="-217.877,780.665 -246.688,796.024 -274.395,778.752 -273.291,746.121 
		-244.479,730.762 -216.771,748.034 	"/>
	<polygon stroke="#000000" stroke-miterlimit="10" points="-159.822,782.315 -188.634,797.675 -216.342,780.402 -215.236,747.771 
		-186.425,732.412 -158.718,749.684 	"/>
	<polygon stroke="#000000" stroke-miterlimit="10" points="-70.694,734.293 -99.506,749.652 -127.213,732.38 -126.108,699.748 
		-97.297,684.389 -69.59,701.661 	"/>
	<polygon stroke="#000000" stroke-miterlimit="10" points="-39.621,684.62 -68.432,699.979 -96.139,682.707 -95.035,650.075 
		-66.223,634.716 -38.516,651.988 	"/>
	<polygon stroke="#000000" stroke-miterlimit="10" points="18.434,686.271 -10.378,701.629 -38.085,684.356 -36.98,651.726 
		-8.168,636.366 19.538,653.639 	"/>
	<polygon stroke="#000000" stroke-miterlimit="10" points="49.508,636.598 20.696,651.956 -7.012,634.685 -5.906,602.053 
		22.905,586.693 50.612,603.966 	"/>
	<polygon stroke="#000000" stroke-miterlimit="10" points="107.562,638.248 78.75,653.606 51.043,636.334 52.148,603.703 
		80.96,588.344 108.666,605.616 	"/>
	<polygon stroke="#000000" stroke-miterlimit="10" points="-128.748,732.643 -157.561,748.002 -185.268,730.729 -184.162,698.098 
		-155.352,682.738 -127.645,700.011 	"/>
	<polygon stroke="#000000" stroke-miterlimit="10" points="-605.463,1022.429 -634.275,1037.788 -661.981,1020.516 
		-660.877,987.884 -632.065,972.525 -604.358,989.797 	"/>
	<polygon stroke="#000000" stroke-miterlimit="10" points="-663.517,1020.778 -692.329,1036.138 -720.036,1018.865 
		-718.931,986.233 -690.12,970.874 -662.413,988.146 	"/>
	<polygon stroke="#000000" stroke-miterlimit="10" points="-783.72,1118.475 -812.531,1133.833 -840.238,1116.561 -839.133,1083.93 
		-810.322,1068.57 -782.615,1085.843 	"/>
	<polygon stroke="#000000" stroke-miterlimit="10" points="-725.666,1120.125 -754.477,1135.484 -782.184,1118.211 
		-781.079,1085.58 -752.268,1070.221 -724.561,1087.493 	"/>
	<polygon stroke="#000000" stroke-miterlimit="10" points="-667.612,1121.774 -696.423,1137.135 -724.13,1119.861 -723.025,1087.23 
		-694.213,1071.871 -666.507,1089.143 	"/>
	<polygon stroke="#000000" stroke-miterlimit="10" points="-547.409,1024.079 -576.221,1039.438 -603.928,1022.166 
		-602.823,989.534 -574.012,974.176 -546.305,991.448 	"/>
	<polygon stroke="#000000" stroke-miterlimit="10" points="-489.355,1025.729 -518.167,1041.089 -545.873,1023.816 -544.77,991.185 
		-515.957,975.826 -488.25,993.099 	"/>
	<polygon stroke="#000000" stroke-miterlimit="10" points="-458.281,976.057 -487.092,991.415 -514.799,974.144 -513.695,941.512 
		-484.883,926.153 -457.177,943.425 	"/>
	<polygon stroke="#000000" stroke-miterlimit="10" points="-400.227,977.707 -429.039,993.065 -456.745,975.793 -455.641,943.162 
		-426.829,927.803 -399.122,945.075 	"/>
	<polygon stroke="#000000" stroke-miterlimit="10" points="-369.153,928.034 -397.964,943.393 -425.672,926.12 -424.566,893.489 
		-395.755,878.13 -368.049,895.402 	"/>
	<polygon stroke="#000000" stroke-miterlimit="10" points="-311.099,929.685 -339.91,945.043 -367.617,927.771 -366.513,895.14 
		-337.701,879.78 -309.994,897.053 	"/>
	<polygon stroke="#000000" stroke-miterlimit="10" points="-280.025,880.011 -308.836,895.371 -336.543,878.099 -335.438,845.467 
		-306.627,830.107 -278.92,847.379 	"/>
	<polygon stroke="#000000" stroke-miterlimit="10" points="-221.971,881.661 -250.782,897.021 -278.489,879.749 -277.385,847.117 
		-248.573,831.758 -220.866,849.029 	"/>
	<polygon stroke="#000000" stroke-miterlimit="10" points="-190.896,831.988 -219.708,847.348 -247.415,830.075 -246.311,797.444 
		-217.499,782.084 -189.792,799.357 	"/>
	<polygon stroke="#000000" stroke-miterlimit="10" points="-132.842,833.639 -161.654,848.998 -189.361,831.726 -188.257,799.095 
		-159.445,783.734 -131.738,801.008 	"/>
	<polygon stroke="#000000" stroke-miterlimit="10" points="-43.715,785.616 -72.525,800.976 -100.232,783.703 -99.129,751.071 
		-70.316,735.712 -42.609,752.984 	"/>
	<polygon stroke="#000000" stroke-miterlimit="10" points="-12.641,735.943 -41.452,751.302 -69.158,734.03 -68.054,701.398 
		-39.243,686.039 -11.536,703.312 	"/>
	<polygon stroke="#000000" stroke-miterlimit="10" points="45.414,737.594 16.602,752.952 -11.105,735.681 -10,703.049 
		18.812,687.689 46.519,704.962 	"/>
	<polygon stroke="#000000" stroke-miterlimit="10" points="76.488,687.92 47.676,703.28 19.97,686.008 21.074,653.376 
		49.885,638.017 77.592,655.289 	"/>
	<polygon stroke="#000000" stroke-miterlimit="10" points="134.542,689.57 105.73,704.93 78.023,687.658 79.128,655.026 
		107.939,639.667 135.646,656.939 	"/>
	<polygon stroke="#000000" stroke-miterlimit="10" points="-101.769,783.966 -130.58,799.325 -158.287,782.053 -157.182,749.421 
		-128.371,734.063 -100.664,751.334 	"/>
	<polygon stroke="#000000" stroke-miterlimit="10" points="-578.483,1073.752 -607.295,1089.111 -635.002,1071.839 
		-633.897,1039.207 -605.085,1023.848 -577.379,1041.12 	"/>
	<polygon stroke="#000000" stroke-miterlimit="10" points="-636.538,1072.102 -665.349,1087.461 -693.056,1070.188 
		-691.951,1037.558 -663.14,1022.197 -635.433,1039.47 	"/>
	<polygon stroke="#000000" stroke-miterlimit="10" points="-756.739,1169.798 -785.551,1185.156 -813.258,1167.884 
		-812.153,1135.253 -783.342,1119.894 -755.635,1137.166 	"/>
	<polygon stroke="#000000" stroke-miterlimit="10" points="-697.769,1172.524 -726.58,1187.884 -754.287,1170.611 -753.183,1137.98 
		-724.371,1122.621 -696.664,1139.893 	"/>
	<polygon stroke="#000000" stroke-miterlimit="10" points="-639.715,1174.175 -668.526,1189.533 -696.233,1172.262 
		-695.128,1139.631 -666.316,1124.271 -638.61,1141.543 	"/>
	<polygon stroke="#000000" stroke-miterlimit="10" points="-519.513,1076.479 -548.324,1091.839 -576.031,1074.566 
		-574.926,1041.935 -546.115,1026.575 -518.408,1043.848 	"/>
	<polygon stroke="#000000" stroke-miterlimit="10" points="-461.459,1078.129 -490.27,1093.489 -517.977,1076.217 
		-516.873,1043.585 -488.061,1028.226 -460.354,1045.497 	"/>
	<polygon stroke="#000000" stroke-miterlimit="10" points="-430.385,1028.456 -459.195,1043.815 -486.902,1026.543 
		-485.798,993.912 -456.986,978.553 -429.279,995.825 	"/>
	<polygon stroke="#000000" stroke-miterlimit="10" points="-372.33,1030.106 -401.143,1045.466 -428.85,1028.193 -427.744,995.562 
		-398.933,980.203 -371.226,997.476 	"/>
	<polygon stroke="#000000" stroke-miterlimit="10" points="-341.256,980.435 -370.067,995.793 -397.774,978.521 -396.67,945.889 
		-367.857,930.53 -340.152,947.803 	"/>
	<polygon stroke="#000000" stroke-miterlimit="10" points="-283.202,982.084 -312.014,997.443 -339.721,980.171 -338.616,947.54 
		-309.805,932.181 -282.098,949.453 	"/>
	<polygon stroke="#000000" stroke-miterlimit="10" points="-252.129,932.411 -280.939,947.77 -308.646,930.498 -307.541,897.867 
		-278.73,882.508 -251.023,899.779 	"/>
	<polygon stroke="#000000" stroke-miterlimit="10" points="-194.074,934.062 -222.886,949.42 -250.593,932.148 -249.488,899.518 
		-220.676,884.157 -192.969,901.43 	"/>
	<polygon stroke="#000000" stroke-miterlimit="10" points="-163,884.389 -191.813,899.748 -219.518,882.476 -218.413,849.844 
		-189.603,834.484 -161.896,851.757 	"/>
	<polygon stroke="#000000" stroke-miterlimit="10" points="-104.945,886.039 -133.758,901.398 -161.465,884.126 -160.359,851.494 
		-131.548,836.135 -103.841,853.407 	"/>
	<polygon stroke="#000000" stroke-miterlimit="10" points="-15.817,838.016 -44.629,853.375 -72.336,836.104 -71.231,803.472 
		-42.42,788.112 -14.713,805.385 	"/>
	<polygon stroke="#000000" stroke-miterlimit="10" points="15.256,788.344 -13.556,803.702 -41.262,786.431 -40.156,753.799 
		-11.346,738.439 16.361,755.712 	"/>
	<polygon stroke="#000000" stroke-miterlimit="10" points="73.311,789.993 44.499,805.353 16.792,788.08 17.896,755.449 
		46.709,740.09 74.416,757.362 	"/>
	<polygon stroke="#000000" stroke-miterlimit="10" points="104.385,740.32 75.572,755.68 47.867,738.407 48.971,705.776 
		77.782,690.417 105.489,707.689 	"/>
	<polygon stroke="#000000" stroke-miterlimit="10" points="162.439,741.971 133.627,757.33 105.92,740.058 107.025,707.427 
		135.836,692.067 163.544,709.34 	"/>
	<polygon stroke="#000000" stroke-miterlimit="10" points="-73.872,836.365 -102.684,851.725 -130.39,834.453 -129.285,801.821 
		-100.475,786.462 -72.768,803.734 	"/>
	<polygon stroke="#000000" stroke-miterlimit="10" points="-550.586,1126.152 -579.398,1141.512 -607.105,1124.239 -606,1091.607 
		-577.188,1076.248 -549.482,1093.521 	"/>
	<polygon stroke="#000000" stroke-miterlimit="10" points="-608.641,1124.502 -637.452,1139.861 -665.159,1122.588 
		-664.054,1089.957 -635.243,1074.598 -607.536,1091.87 	"/>
	<polygon stroke="#000000" stroke-miterlimit="10" points="-728.843,1222.197 -757.654,1237.557 -785.361,1220.284 
		-784.256,1187.652 -755.445,1172.294 -727.738,1189.566 	"/>
	<polygon stroke="#000000" stroke-miterlimit="10" points="-669.872,1224.924 -698.683,1240.283 -726.39,1223.012 -725.286,1190.38 
		-696.474,1175.021 -668.767,1192.293 	"/>
	<polygon stroke="#000000" stroke-miterlimit="10" points="-611.818,1226.575 -640.629,1241.934 -668.336,1224.661 
		-667.231,1192.031 -638.42,1176.671 -610.713,1193.943 	"/>
	<polygon stroke="#000000" stroke-miterlimit="10" points="-491.616,1128.879 -520.427,1144.239 -548.134,1126.967 
		-547.029,1094.335 -518.217,1078.976 -490.512,1096.247 	"/>
	<polygon stroke="#000000" stroke-miterlimit="10" points="-433.562,1130.529 -462.373,1145.889 -490.08,1128.617 
		-488.976,1095.985 -460.164,1080.626 -432.457,1097.897 	"/>
	<polygon stroke="#000000" stroke-miterlimit="10" points="-402.488,1080.856 -431.299,1096.216 -459.006,1078.943 -457.9,1046.312 
		-429.089,1030.952 -401.383,1048.225 	"/>
	<polygon stroke="#000000" stroke-miterlimit="10" points="-344.434,1082.507 -373.245,1097.866 -400.952,1080.594 
		-399.848,1047.962 -371.035,1032.604 -343.328,1049.875 	"/>
	<polygon stroke="#000000" stroke-miterlimit="10" points="-313.359,1032.833 -342.17,1048.193 -369.877,1030.921 -368.772,998.289 
		-339.962,982.931 -312.255,1000.203 	"/>
	<polygon stroke="#000000" stroke-miterlimit="10" points="-255.305,1034.483 -284.117,1049.843 -311.824,1032.571 
		-310.719,999.939 -281.907,984.581 -254.2,1001.853 	"/>
	<polygon stroke="#000000" stroke-miterlimit="10" points="-224.231,984.812 -253.043,1000.17 -280.749,982.897 -279.645,950.268 
		-250.834,934.907 -223.127,952.18 	"/>
	<polygon stroke="#000000" stroke-miterlimit="10" points="-166.177,986.462 -194.988,1001.82 -222.695,984.548 -221.591,951.917 
		-192.779,936.558 -165.072,953.83 	"/>
	<polygon stroke="#000000" stroke-miterlimit="10" points="-135.104,936.789 -163.915,952.148 -191.621,934.875 -190.517,902.244 
		-161.705,886.885 -133.998,904.157 	"/>
	<polygon stroke="#000000" stroke-miterlimit="10" points="-77.049,938.438 -105.86,953.799 -133.567,936.526 -132.463,903.895 
		-103.65,888.535 -75.943,905.808 	"/>
	<polygon stroke="#000000" stroke-miterlimit="10" points="12.08,890.416 -16.732,905.775 -44.439,888.503 -43.334,855.872 
		-14.523,840.512 13.184,857.784 	"/>
	<polygon stroke="#000000" stroke-miterlimit="10" points="43.153,840.743 14.342,856.103 -13.365,838.83 -12.261,806.198 
		16.551,790.84 44.258,808.112 	"/>
	<polygon stroke="#000000" stroke-miterlimit="10" points="101.207,842.394 72.396,857.753 44.689,840.48 45.793,807.849 
		74.605,792.49 102.313,809.762 	"/>
	<polygon stroke="#000000" stroke-miterlimit="10" points="132.281,792.721 103.47,808.08 75.763,790.808 76.867,758.176 
		105.68,742.816 133.387,760.089 	"/>
	<polygon stroke="#000000" stroke-miterlimit="10" points="190.336,794.371 161.524,809.73 133.816,792.458 134.922,759.826 
		163.733,744.467 191.44,761.739 	"/>
	<polygon stroke="#000000" stroke-miterlimit="10" points="-45.975,888.766 -74.787,904.125 -102.492,886.854 -101.389,854.222 
		-72.577,838.862 -44.87,856.134 	"/>
	<polygon stroke="#000000" stroke-miterlimit="10" points="-522.689,1178.553 -551.501,1193.911 -579.208,1176.639 
		-578.104,1144.008 -549.292,1128.648 -521.585,1145.921 	"/>
	<polygon stroke="#000000" stroke-miterlimit="10" points="-580.744,1176.902 -609.556,1192.261 -637.262,1174.988 
		-636.157,1142.357 -607.346,1126.998 -579.639,1144.271 	"/>
	<polygon stroke="#000000" stroke-miterlimit="10" points="-700.946,1274.597 -729.757,1289.957 -757.464,1272.685 
		-756.36,1240.053 -727.548,1224.694 -699.841,1241.967 	"/>
	<polygon stroke="#000000" stroke-miterlimit="10" points="-641.895,1276.327 -670.707,1291.688 -698.413,1274.415 
		-697.309,1241.783 -668.497,1226.425 -640.79,1243.696 	"/>
	<polygon stroke="#000000" stroke-miterlimit="10" points="-583.841,1277.978 -612.652,1293.337 -640.359,1276.065 
		-639.254,1243.434 -610.443,1228.075 -582.736,1245.347 	"/>
	<polygon stroke="#000000" stroke-miterlimit="10" points="-463.639,1180.282 -492.449,1195.642 -520.156,1178.369 
		-519.053,1145.738 -490.24,1130.379 -462.534,1147.651 	"/>
	<polygon stroke="#000000" stroke-miterlimit="10" points="-405.584,1181.933 -434.396,1197.291 -462.104,1180.02 
		-460.998,1147.389 -432.188,1132.029 -404.48,1149.301 	"/>
	<polygon stroke="#000000" stroke-miterlimit="10" points="-374.511,1132.26 -403.322,1147.619 -431.029,1130.347 
		-429.924,1097.716 -401.113,1082.355 -373.406,1099.628 	"/>
	<polygon stroke="#000000" stroke-miterlimit="10" points="-316.457,1133.91 -345.268,1149.27 -372.975,1131.997 -371.871,1099.365 
		-343.059,1084.006 -315.352,1101.278 	"/>
	<polygon stroke="#000000" stroke-miterlimit="10" points="-285.383,1084.237 -314.194,1099.597 -341.9,1082.324 -340.796,1049.692 
		-311.984,1034.334 -284.277,1051.605 	"/>
	<polygon stroke="#000000" stroke-miterlimit="10" points="-227.328,1085.887 -256.141,1101.247 -283.848,1083.975 
		-282.742,1051.343 -253.931,1035.984 -226.224,1053.257 	"/>
	<polygon stroke="#000000" stroke-miterlimit="10" points="-196.254,1036.214 -225.066,1051.573 -252.772,1034.302 
		-251.668,1001.67 -222.857,986.312 -195.15,1003.583 	"/>
	<polygon stroke="#000000" stroke-miterlimit="10" points="-138.2,1037.865 -167.012,1053.224 -194.719,1035.951 -193.614,1003.32 
		-164.803,987.961 -137.096,1005.233 	"/>
	<polygon stroke="#000000" stroke-miterlimit="10" points="-107.127,988.192 -135.938,1003.551 -163.645,986.278 -162.539,953.647 
		-133.729,938.288 -106.021,955.561 	"/>
	<polygon stroke="#000000" stroke-miterlimit="10" points="-49.072,989.843 -77.884,1005.201 -105.591,987.929 -104.486,955.298 
		-75.674,939.938 -47.967,957.211 	"/>
	<polygon stroke="#000000" stroke-miterlimit="10" points="40.057,941.819 11.244,957.179 -16.463,939.907 -15.357,907.275 
		13.454,891.915 41.161,909.188 	"/>
	<polygon stroke="#000000" stroke-miterlimit="10" points="71.13,892.146 42.318,907.506 14.611,890.233 15.716,857.602 
		44.527,842.242 72.234,859.515 	"/>
	<polygon stroke="#000000" stroke-miterlimit="10" points="129.185,893.797 100.373,909.156 72.666,891.884 73.771,859.252 
		102.582,843.893 130.289,861.166 	"/>
	<polygon stroke="#000000" stroke-miterlimit="10" points="160.258,844.123 131.446,859.483 103.739,842.211 104.844,809.579 
		133.656,794.221 161.363,811.492 	"/>
	<polygon stroke="#000000" stroke-miterlimit="10" points="218.313,845.773 189.501,861.133 161.794,843.861 162.898,811.229 
		191.71,795.87 219.416,813.143 	"/>
	<polygon stroke="#000000" stroke-miterlimit="10" points="-17.998,940.169 -46.811,955.528 -74.516,938.257 -73.412,905.625 
		-44.601,890.266 -16.894,907.537 	"/>
	<polygon stroke="#000000" stroke-miterlimit="10" points="-494.713,1229.956 -523.524,1245.314 -551.231,1228.042 
		-550.127,1195.41 -521.314,1180.052 -493.607,1197.324 	"/>
	<polygon stroke="#000000" stroke-miterlimit="10" points="-552.767,1228.305 -581.579,1243.664 -609.285,1226.392 
		-608.181,1193.76 -579.369,1178.401 -551.662,1195.674 	"/>
	<polygon stroke="#000000" stroke-miterlimit="10" points="-672.969,1326.001 -701.78,1341.36 -729.487,1324.088 -728.383,1291.456 
		-699.571,1276.097 -671.864,1293.369 	"/>
	<polygon stroke="#000000" stroke-miterlimit="10" points="-614.995,1328.647 -643.807,1344.007 -671.514,1326.735 
		-670.409,1294.104 -641.597,1278.744 -613.891,1296.016 	"/>
	<polygon stroke="#000000" stroke-miterlimit="10" points="-556.94,1330.298 -585.752,1345.657 -613.459,1328.385 
		-612.355,1295.754 -583.543,1280.395 -555.836,1297.667 	"/>
	<polygon stroke="#000000" stroke-miterlimit="10" points="-436.738,1232.603 -465.551,1247.961 -493.258,1230.689 
		-492.152,1198.059 -463.341,1182.699 -435.634,1199.971 	"/>
	<polygon stroke="#000000" stroke-miterlimit="10" points="-378.685,1234.253 -407.496,1249.611 -435.203,1232.34 
		-434.098,1199.709 -405.287,1184.35 -377.58,1201.621 	"/>
	<polygon stroke="#000000" stroke-miterlimit="10" points="-347.61,1184.58 -376.422,1199.939 -404.129,1182.666 -403.024,1150.035 
		-374.213,1134.676 -346.506,1151.948 	"/>
	<polygon stroke="#000000" stroke-miterlimit="10" points="-289.557,1186.23 -318.368,1201.59 -346.074,1184.317 -344.97,1151.686 
		-316.159,1136.326 -288.452,1153.599 	"/>
	<polygon stroke="#000000" stroke-miterlimit="10" points="-258.482,1136.557 -287.294,1151.917 -315.001,1134.645 
		-313.896,1102.013 -285.084,1086.653 -257.378,1103.926 	"/>
	<polygon stroke="#000000" stroke-miterlimit="10" points="-200.428,1138.207 -229.24,1153.566 -256.946,1136.295 
		-255.843,1103.663 -227.031,1088.304 -199.324,1105.576 	"/>
	<polygon stroke="#000000" stroke-miterlimit="10" points="-169.354,1088.534 -198.166,1103.894 -225.873,1086.621 
		-224.768,1053.99 -195.956,1038.631 -168.25,1055.903 	"/>
	<polygon stroke="#000000" stroke-miterlimit="10" points="-111.301,1090.185 -140.111,1105.544 -167.819,1088.271 
		-166.715,1055.64 -137.902,1040.281 -110.195,1057.554 	"/>
	<polygon stroke="#000000" stroke-miterlimit="10" points="-80.227,1040.513 -109.037,1055.871 -136.744,1038.599 -135.64,1005.967 
		-106.828,990.608 -79.122,1007.881 	"/>
	<polygon stroke="#000000" stroke-miterlimit="10" points="-22.172,1042.162 -50.984,1057.521 -78.691,1040.249 -77.586,1007.618 
		-48.774,992.259 -21.067,1009.531 	"/>
	<polygon stroke="#000000" stroke-miterlimit="10" points="66.956,994.14 38.145,1009.498 10.438,992.227 11.542,959.595 
		40.354,944.235 68.061,961.508 	"/>
	<polygon stroke="#000000" stroke-miterlimit="10" points="98.029,944.467 69.219,959.826 41.512,942.554 42.617,909.922 
		71.428,894.563 99.135,911.835 	"/>
	<polygon stroke="#000000" stroke-miterlimit="10" points="156.084,946.117 127.272,961.477 99.565,944.204 100.67,911.572 
		129.482,896.213 157.189,913.485 	"/>
	<polygon stroke="#000000" stroke-miterlimit="10" points="187.158,896.443 158.347,911.803 130.641,894.531 131.745,861.899 
		160.556,846.541 188.263,863.813 	"/>
	<polygon stroke="#000000" stroke-miterlimit="10" points="245.213,898.094 216.4,913.453 188.693,896.182 189.799,863.55 
		218.61,848.19 246.317,865.463 	"/>
	<polygon stroke="#000000" stroke-miterlimit="10" points="8.902,992.489 -19.909,1007.848 -47.616,990.576 -46.512,957.945 
		-17.701,942.585 10.006,959.857 	"/>
	<polygon stroke="#000000" stroke-miterlimit="10" points="-467.813,1282.275 -496.625,1297.635 -524.331,1280.362 
		-523.227,1247.73 -494.416,1232.372 -466.708,1249.645 	"/>
	<polygon stroke="#000000" stroke-miterlimit="10" points="-525.867,1280.625 -554.678,1295.984 -582.385,1278.712 
		-581.281,1246.08 -552.469,1230.722 -524.762,1247.994 	"/>
	<polygon stroke="#000000" stroke-miterlimit="10" points="-646.069,1378.32 -674.881,1393.681 -702.587,1376.408 
		-701.483,1343.776 -672.671,1328.417 -644.964,1345.689 	"/>
	<polygon stroke="#000000" stroke-miterlimit="10" points="-587.098,1381.048 -615.91,1396.407 -643.617,1379.135 
		-642.512,1346.504 -613.7,1331.144 -585.994,1348.416 	"/>
	<polygon stroke="#000000" stroke-miterlimit="10" points="-529.045,1382.698 -557.856,1398.058 -585.563,1380.785 
		-584.458,1348.153 -555.646,1332.794 -527.939,1350.066 	"/>
	<polygon stroke="#000000" stroke-miterlimit="10" points="-408.842,1285.002 -437.653,1300.361 -465.36,1283.09 -464.256,1250.458 
		-435.443,1235.1 -407.738,1252.371 	"/>
	<polygon stroke="#000000" stroke-miterlimit="10" points="-350.788,1286.653 -379.6,1302.012 -407.306,1284.739 -406.201,1252.109 
		-377.391,1236.749 -349.684,1254.021 	"/>
	<polygon stroke="#000000" stroke-miterlimit="10" points="-319.715,1236.98 -348.525,1252.339 -376.232,1235.066 
		-375.127,1202.436 -346.315,1187.076 -318.609,1204.349 	"/>
	<polygon stroke="#000000" stroke-miterlimit="10" points="-261.66,1238.631 -290.472,1253.989 -318.178,1236.717 
		-317.074,1204.086 -288.262,1188.727 -260.555,1205.999 	"/>
	<polygon stroke="#000000" stroke-miterlimit="10" points="-230.586,1188.957 -259.396,1204.316 -287.104,1187.045 
		-285.999,1154.413 -257.188,1139.054 -229.481,1156.325 	"/>
	<polygon stroke="#000000" stroke-miterlimit="10" points="-172.531,1190.607 -201.344,1205.967 -229.051,1188.695 
		-227.945,1156.063 -199.134,1140.703 -171.427,1157.976 	"/>
	<polygon stroke="#000000" stroke-miterlimit="10" points="-141.458,1140.935 -170.269,1156.294 -197.976,1139.021 
		-196.871,1106.39 -168.059,1091.03 -140.354,1108.303 	"/>
	<polygon stroke="#000000" stroke-miterlimit="10" points="-83.403,1142.585 -112.215,1157.944 -139.922,1140.672 -138.817,1108.04 
		-110.006,1092.682 -82.299,1109.953 	"/>
	<polygon stroke="#000000" stroke-miterlimit="10" points="-52.33,1092.911 -81.141,1108.271 -108.848,1090.999 -107.742,1058.367 
		-78.932,1043.009 -51.225,1060.281 	"/>
	<polygon stroke="#000000" stroke-miterlimit="10" points="5.725,1094.562 -23.087,1109.921 -50.794,1092.649 -49.689,1060.018 
		-20.877,1044.659 6.83,1061.931 	"/>
	<polygon stroke="#000000" stroke-miterlimit="10" points="94.854,1046.54 66.041,1061.898 38.334,1044.626 39.439,1011.995 
		68.25,996.636 95.957,1013.908 	"/>
	<polygon stroke="#000000" stroke-miterlimit="10" points="125.927,996.867 97.115,1012.227 69.408,994.953 70.514,962.322 
		99.324,946.963 127.031,964.235 	"/>
	<polygon stroke="#000000" stroke-miterlimit="10" points="183.981,998.517 155.17,1013.877 127.463,996.604 128.566,963.973 
		157.379,948.613 185.086,965.886 	"/>
	<polygon stroke="#000000" stroke-miterlimit="10" points="215.055,948.844 186.243,964.203 158.537,946.932 159.642,914.3 
		188.452,898.939 216.159,916.212 	"/>
	<polygon stroke="#000000" stroke-miterlimit="10" points="273.109,950.494 244.298,965.854 216.591,948.581 217.695,915.949 
		246.507,900.59 274.214,917.862 	"/>
	<polygon stroke="#000000" stroke-miterlimit="10" points="36.799,1044.89 7.986,1060.248 -19.719,1042.976 -18.615,1010.345 
		10.196,994.985 37.903,1012.258 	"/>
	<polygon stroke="#000000" stroke-miterlimit="10" points="-439.916,1334.675 -468.729,1350.035 -496.434,1332.763 
		-495.329,1300.131 -466.519,1284.772 -438.812,1302.045 	"/>
	<polygon stroke="#000000" stroke-miterlimit="10" points="-497.97,1333.025 -526.781,1348.385 -554.488,1331.112 -553.384,1298.48 
		-524.572,1283.121 -496.865,1300.395 	"/>
	<polygon stroke="#000000" stroke-miterlimit="10" points="-618.172,1430.721 -646.984,1446.08 -674.691,1428.809 
		-673.586,1396.177 -644.774,1380.817 -617.068,1398.089 	"/>
	<polygon stroke="#000000" stroke-miterlimit="10" points="-559.121,1432.451 -587.933,1447.811 -615.64,1430.539 
		-614.535,1397.907 -585.724,1382.548 -558.016,1399.819 	"/>
	<polygon stroke="#000000" stroke-miterlimit="10" points="-501.067,1434.102 -529.879,1449.461 -557.585,1432.188 
		-556.48,1399.558 -527.67,1384.197 -499.963,1401.47 	"/>
	<polygon stroke="#000000" stroke-miterlimit="10" points="-380.865,1336.405 -409.676,1351.765 -437.383,1334.493 
		-436.279,1301.861 -407.467,1286.503 -379.761,1303.774 	"/>
	<polygon stroke="#000000" stroke-miterlimit="10" points="-322.811,1338.056 -351.623,1353.415 -379.329,1336.144 
		-378.225,1303.512 -349.414,1288.152 -321.707,1305.425 	"/>
	<polygon stroke="#000000" stroke-miterlimit="10" points="-291.737,1288.384 -320.549,1303.742 -348.256,1286.47 -347.15,1253.838 
		-318.339,1238.479 -290.633,1255.752 	"/>
	<polygon stroke="#000000" stroke-miterlimit="10" points="-233.683,1290.034 -262.494,1305.393 -290.201,1288.12 
		-289.098,1255.489 -260.285,1240.13 -232.578,1257.402 	"/>
	<polygon stroke="#000000" stroke-miterlimit="10" points="-202.609,1240.36 -231.42,1255.72 -259.127,1238.447 -258.022,1205.816 
		-229.211,1190.457 -201.504,1207.729 	"/>
	<polygon stroke="#000000" stroke-miterlimit="10" points="-144.555,1242.011 -173.366,1257.369 -201.073,1240.098 
		-199.969,1207.467 -171.157,1192.107 -143.45,1209.379 	"/>
	<polygon stroke="#000000" stroke-miterlimit="10" points="-113.48,1192.338 -142.292,1207.697 -169.999,1190.425 
		-168.895,1157.793 -140.084,1142.434 -112.377,1159.706 	"/>
	<polygon stroke="#000000" stroke-miterlimit="10" points="-55.427,1193.988 -84.238,1209.348 -111.945,1192.075 -110.841,1159.443 
		-82.029,1144.084 -54.322,1161.356 	"/>
	<polygon stroke="#000000" stroke-miterlimit="10" points="-24.353,1144.315 -53.164,1159.675 -80.871,1142.402 -79.766,1109.771 
		-50.955,1094.412 -23.248,1111.684 	"/>
	<polygon stroke="#000000" stroke-miterlimit="10" points="33.701,1145.965 4.891,1161.325 -22.817,1144.053 -21.713,1111.421 
		7.1,1096.063 34.807,1113.335 	"/>
	<polygon stroke="#000000" stroke-miterlimit="10" points="122.83,1097.943 94.018,1113.302 66.311,1096.029 67.416,1063.397 
		96.228,1048.039 123.935,1065.312 	"/>
	<polygon stroke="#000000" stroke-miterlimit="10" points="153.903,1048.271 125.092,1063.629 97.386,1046.356 98.49,1013.726 
		127.301,998.366 155.008,1015.639 	"/>
	<polygon stroke="#000000" stroke-miterlimit="10" points="211.958,1049.921 183.146,1065.279 155.439,1048.007 156.544,1015.376 
		185.355,1000.017 213.063,1017.289 	"/>
	<polygon stroke="#000000" stroke-miterlimit="10" points="243.032,1000.247 214.22,1015.606 186.514,998.335 187.617,965.703 
		216.43,950.344 244.137,967.615 	"/>
	<polygon stroke="#000000" stroke-miterlimit="10" points="301.086,1001.897 272.274,1017.257 244.567,999.985 245.672,967.354 
		274.484,951.993 302.191,969.266 	"/>
	<polygon stroke="#000000" stroke-miterlimit="10" points="64.775,1096.292 35.964,1111.651 8.258,1094.38 9.362,1061.748 
		38.173,1046.389 65.88,1063.661 	"/>
	<polygon stroke="#000000" stroke-miterlimit="10" points="-411.939,1386.079 -440.751,1401.438 -468.457,1384.166 
		-467.353,1351.534 -438.541,1336.175 -410.834,1353.447 	"/>
	<polygon stroke="#000000" stroke-miterlimit="10" points="-469.992,1384.429 -498.805,1399.788 -526.512,1382.516 
		-525.406,1349.884 -496.596,1334.524 -468.889,1351.797 	"/>
	<polygon stroke="#000000" stroke-miterlimit="10" points="-590.196,1482.124 -619.007,1497.483 -646.714,1480.211 
		-645.609,1447.58 -616.797,1432.221 -589.091,1449.493 	"/>
</g>
</svg>
